<?xml version="1.0" standalone="no"?>
<!DOCTYPE svg PUBLIC "-//W3C//DTD SVG 1.1//EN" "http://www.w3.org/Graphics/SVG/1.1/DTD/svg11.dtd" >
<!--
2013-9-30: Created.
-->
<svg>
<metadata>
Created by iconfont
</metadata>
<defs>

<font id="iconfont" horiz-adv-x="1024" >
  <font-face
    font-family="iconfont"
    font-weight="500"
    font-stretch="normal"
    units-per-em="1024"
    ascent="896"
    descent="-128"
  />
    <missing-glyph />
    
    <glyph glyph-name="chuizhi" unicode="&#59074;" d="M119.6 218.3h332.6c15.3 0 27.7 12.4 27.7 27.7V800.3c0 12.5-8.3 23.4-20.3 26.7-12 3.3-24.8-1.8-31.2-12.5L95.9 260.3c-5.1-8.6-5.3-19.2-0.3-27.9 4.9-8.7 14.1-14.1 24-14.1z m304.9 481.9v-426.5H168.6l255.9 426.5z m478.6-559c-10.2 11-27.4 11.8-38.6 1.9-11.2-9.9-12.5-27-2.9-38.5l34.9-39.5H174.1l34.9 39.5c6.9 7.4 9.2 17.9 6.1 27.5-3.1 9.6-11.2 16.7-21.1 18.6-9.9 1.9-20-1.7-26.5-9.4l-68.7-77.6c-9.3-10.5-9.3-26.2 0-36.7l67-75.6c5.2-6 12.8-9.4 20.8-9.3 10.9 0 20.8 6.4 25.3 16.3s2.7 21.6-4.6 29.7l-19.1 21.5h694.1l-19-21.6c-6.6-7.4-8.7-17.7-5.5-27.1 3.1-9.4 11-16.4 20.7-18.4s19.7 1.4 26.3 8.8l67 75.6c9.3 10.5 9.3 26.2 0 36.7l-68.7 77.6z m49.1 81c10 0 19.2 5.4 24.1 14.1 4.9 8.7 4.8 19.3-0.3 27.9L643.4 818.4c-6.4 10.7-19.2 15.8-31.2 12.5-12-3.3-20.3-14.3-20.3-26.7v-554.3c0-15.3 12.4-27.7 27.7-27.7h332.6z m-49 55.4H647.3V704.1l255.9-426.5z"  horiz-adv-x="1024" />

    
    <glyph glyph-name="shuiping" unicode="&#59075;" d="M357.5 805v-333.7c0-7.4 2.9-14.5 8.1-19.7 5.2-5.2 12.3-8.1 19.7-8.1h556.2c12.5 0 23.5 8.3 26.8 20.4 3.3 12.1-1.8 24.9-12.5 31.3L399.6 828.9c-8.6 5.1-19.3 5.3-28 0.3-8.7-4.9-14.1-14.1-14.1-24.2z m483.6-305.9h-428V755.9l428-256.8z m-561-480.3c11 10.3 11.8 27.5 1.9 38.7-10 11.3-27.1 12.6-38.7 2.9l-39.7-35.1v725l39.7-35.1c7.4-6.9 18-9.3 27.6-6.1 9.6 3.1 16.8 11.2 18.7 21.2a27.8 27.8 0 0 1-9.5 26.6l-77.9 68.9c-10.5 9.3-26.3 9.3-36.9 0l-75.9-67.3c-6-5.3-9.4-12.9-9.4-20.8 0-10.9 6.4-20.9 16.4-25.4 10-4.5 21.7-2.7 29.9 4.6l21.6 19.2v-696.5l-21.6 19.2c-7.4 6.6-17.8 8.7-27.2 5.6-9.4-3.1-16.5-11.1-18.4-20.8-2-9.7 1.4-19.8 8.8-26.4l75.9-67.3c10.5-9.3 26.3-9.3 36.9 0l77.8 68.9z m78.5-42.6c0-10 5.4-19.3 14.1-24.2 8.7-4.9 19.4-4.8 28 0.3L957 286.1c10.7 6.4 15.9 19.2 12.5 31.3-3.3 12.1-14.3 20.4-26.8 20.4H386.4c-7.4 0-14.5-2.9-19.7-8.1-5.2-5.2-8.1-12.3-8.1-19.7v-333.8z m55.6 49.1V282.1h428l-428-256.8z"  horiz-adv-x="1024" />

    
    <glyph glyph-name="areaStatistics" unicode="&#58886;" d="M546.675308 47.533377l13.936487-66.364226-162.924173-59.727803L15.761504 238.330525 99.048607 725.112119 562.602722 896l380.267012-315.893714-50.10499-292.002592-63.046014 25.550227 41.477641 239.906675-321.202852 265.456902L158.112767 675.670771 87.434867 265.539857l321.202852-267.116007z m196.106286 301.625405l30.527544 162.924173-238.911212 204.069994-294.988982-103.196371L181.672067 305.690214l237.252107-204.069994 107.510045 37.827609-13.936487 66.364225-78.973429-27.541153L253.677252 331.904083l44.13221 232.274789 222.983798 78.309786 179.183409-153.965003L679.403759 375.04083z m265.456902-178.519767l-220.992871-110.828257-137.042125-187.810758L546.675308 356.127025z m-160.601425-6.636423l-209.379132 83.618925 46.123137-217.011018 59.064161 80.632534z"  horiz-adv-x="1024" />

    
    <glyph glyph-name="appStore" unicode="&#58890;" d="M1023.653 473.079c0-73.077-57.275-132.285-127.914-132.285s-127.914 59.208-127.914 132.285c0-73.077-57.274-132.285-127.912-132.285-70.64 0-127.914 59.208-127.914 132.285 0-73.077-57.273-132.285-127.913-132.285-70.64 0-127.913 59.208-127.913 132.285 0-73.077-57.275-132.285-127.913-132.285-70.64 0-127.914 59.21-127.914 132.285l89.94 248.145h843.428l89.939-248.145zM863.76 770.816H160.237c-26.482 0-47.968 22.235-47.968 49.654 0 27.355 21.486 49.59 47.968 49.59H863.76c26.482 0 47.968-22.235 47.968-49.59 0-27.42-21.486-49.654-47.968-49.654zM144.248 291.952c4.56 0.437 9.12 1.188 13.616 2 0.936 0.122 1.936 0.249 2.873 0.373 2.062 0.436 4.06 1.062 6.12 1.499 8.681 2.062 17.176 4.622 25.36 7.932V59.61h639.566V303.757c8.12-3.308 16.613-5.87 25.295-7.932 2.062-0.437 4.06-1.063 6.184-1.5 0.936-0.123 1.936-0.25 2.873-0.372 4.497-0.812 8.993-1.563 13.616-2 5.247-0.499 10.619-0.813 15.99-0.813 10.931 0 21.61 1.188 31.979 3.186v-334.024c0-27.355-21.487-49.59-47.969-49.59H144.248c-26.482 0-47.968 22.235-47.968 49.59V294.325c10.367-1.998 21.048-3.186 31.979-3.186 5.372 0 10.743 0.314 15.989 0.813z"  horiz-adv-x="1024" />

    
    <glyph glyph-name="bug" unicode="&#58891;" d="M969.143 347.429q0-14.848-10.862-25.71t-25.71-10.862h-128q0-97.719-38.29-165.705L885.138 25.71Q896 14.848 896 0t-10.862-25.71q-10.276-10.861-25.71-10.861t-25.71 10.861L720.568 86.857q-2.853-2.852-8.558-7.424t-23.99-16.274-37.157-20.846-46.848-16.567-55.443-7.424v512H475.43v-512q-29.148 0-58.003 7.717t-49.7 18.87-37.705 22.273-24.869 18.578l-8.558 8.01-104.557-118.273q-11.447-11.995-27.429-11.995-13.714 0-24.576 9.143-10.862 10.276-11.703 25.417t8.85 26.587L252.6 154.368q-33.134 65.134-33.134 156.562h-128q-14.848 0-25.71 10.862t-10.861 25.71 10.861 25.71 25.71 10.861h128v168.01l-98.852 98.852q-10.862 10.862-10.862 25.71t10.862 25.71 25.71 10.861 25.709-10.862l98.853-98.852h482.304l98.852 98.852q10.862 10.862 25.71 10.862t25.71-10.862 10.861-25.71-10.861-25.71l-98.853-98.852v-168.009h128q14.848 0 25.71-10.862t10.861-25.71zM694.857 676.57H329.143q0 75.996 53.43 129.427T512 859.428t129.426-53.43 53.431-129.427z"  horiz-adv-x="1024" />

    
    <glyph glyph-name="add" unicode="&#58892;" d="M512-21.333C288-21.333 106.667 160 106.667 384S288 789.333 512 789.333 917.333 608 917.333 384 736-21.333 512-21.333z m0 750.933c-189.867 0-345.6-155.733-345.6-345.6S322.133 38.4 512 38.4 857.6 194.133 857.6 384 701.867 729.6 512 729.6zM689.067 354.133H334.933c-17.066 0-29.866 12.8-29.866 29.867s12.8 29.867 29.866 29.867H691.2c17.067 0 29.867-12.8 29.867-29.867s-14.934-29.867-32-29.867zM512 177.067c-17.067 0-29.867 12.8-29.867 29.866V561.067c0 17.066 12.8 29.866 29.867 29.866s29.867-12.8 29.867-29.866V204.8c0-14.933-12.8-27.733-29.867-27.733z"  horiz-adv-x="1024" />

    
    <glyph glyph-name="asset" unicode="&#58893;" d="M991.744 297.472c-16.384 82.432-167.936 125.44-317.952 125.44h-6.144V738.816c0 92.16-160.768 140.288-319.488 140.288S28.672 830.976 28.672 738.816v-499.2c0-92.16 160.768-140.288 319.488-140.288h6.656v-67.072c0-92.16 160.768-140.288 319.488-140.288s319.488 48.128 319.488 140.288V296.96l-2.048 0.512z m-317.952-350.208c-161.792 0-264.704 50.688-264.704 86.016 0 9.216 7.68 19.968 22.016 30.208 61.44-30.72 152.576-46.08 242.688-46.08 90.624 0 181.248 15.872 243.2 46.08 14.336-10.24 22.016-20.992 22.016-30.208 0-35.328-103.424-86.016-265.216-86.016zM83.456 240.128c0 9.216 7.68 19.968 22.016 30.208 61.44-30.72 152.576-46.08 242.688-46.08h6.656v-70.144H348.16c-161.28 0.512-264.704 51.2-264.704 86.016z m803.84-130.048c-11.264-5.12-24.064-10.24-38.912-14.848-44.544-13.824-103.936-23.552-174.592-23.552s-129.536 9.728-174.08 23.552c-13.312 4.096-25.088 8.704-35.84 13.312l-3.072 1.536c-11.776 5.632-22.016 11.264-29.696 16.896-2.048 1.536-3.584 2.56-5.12 4.096-10.24 8.704-16.384 17.92-16.384 25.6v0.512c0 9.216 7.68 19.968 22.016 30.208 15.872-7.68 33.28-14.336 52.224-20.48 12.288-3.584 25.088-7.168 38.4-10.24 5.12-1.024 10.752-2.048 16.384-3.584 17.408-3.072 35.328-6.144 53.76-8.192 8.704-1.024 17.408-1.536 26.112-2.56 18.432-1.536 37.376-2.048 55.808-2.048 18.944 0 37.376 0.512 56.32 2.048 33.28 2.56 66.048 7.168 96.256 13.824 33.792 7.68 65.024 17.92 90.624 30.208 14.336-10.24 22.016-20.992 22.016-30.208 0-9.216-7.68-19.968-22.016-30.208-8.192-4.608-18.432-10.24-30.208-15.872zM135.168 317.44c-11.776 5.632-22.016 11.264-29.696 16.896-14.336 10.24-22.016 20.992-22.016 30.208 0 9.216 7.68 19.968 22.016 30.208 25.6-12.8 56.832-23.04 90.624-30.208 30.208-6.656 62.976-11.264 96.256-13.824 18.432-1.536 37.376-2.048 55.808-2.048 13.824 0 27.648 0.512 41.984 1.024-8.704-7.68-16.384-15.872-22.016-24.576-8.704-13.312-13.312-27.648-13.312-43.008v-3.072H348.16c-70.656 0-129.536 9.728-174.08 23.552-14.848 4.608-27.648 9.728-38.912 14.848zM83.456 489.472c0 9.216 7.68 19.968 22.016 30.208 25.6-12.8 56.832-23.04 90.624-30.208 30.208-6.656 62.976-11.264 96.256-13.824 18.432-1.536 37.376-2.048 55.808-2.048 18.944 0 37.376 0.512 55.808 2.048 33.28 2.56 66.048 7.168 96.256 13.824 33.792 7.68 65.024 17.408 90.624 30.208 14.336-10.24 22.016-20.992 22.016-30.208 0-9.216-7.68-19.968-22.016-30.208-7.68-5.632-17.92-11.776-29.696-16.896-11.264-5.12-24.064-10.24-38.912-14.848-44.544-13.824-103.936-23.552-174.592-23.552s-130.048 9.728-174.592 23.552c-14.848 4.608-27.648 9.728-38.912 14.848-11.776 5.632-22.016 11.264-29.696 16.896-13.312 10.24-20.992 20.992-20.992 30.208z m0 124.928c0 9.216 7.68 19.968 22.016 30.208 25.6-12.8 56.832-23.04 90.624-30.208 30.208-6.656 62.976-11.264 96.256-13.824 18.432-1.536 36.864-2.048 55.808-2.048 18.432 0 37.376 0.512 55.808 2.048 33.28 2.56 66.048 7.168 96.256 13.824 33.792 7.68 65.024 17.408 90.624 30.208 14.336-10.24 22.016-20.992 22.016-30.208 0-9.216-7.68-19.968-22.016-30.208-7.68-5.632-17.92-11.776-29.696-16.896-11.264-5.12-24.064-10.24-38.912-14.848-44.544-13.824-103.936-23.552-174.08-23.552-70.656 0-129.536 9.728-174.08 23.552-14.848 4.608-27.648 9.728-38.912 14.848-11.776 5.632-22.016 11.264-29.696 16.896-14.336 10.24-22.016 20.992-22.016 30.208z"  horiz-adv-x="1024" />

    
    <glyph glyph-name="case_dbaj" unicode="&#58895;" d="M128.039228 113.06732c0-97.598529 72.702012-177.047707 162.141179-177.047706h443.743794c89.439166 0 162.141179 79.449178 162.141179 177.047706V558.955562c0 86.562468-57.220145 158.689141-132.485035 173.961794a468.797221 468.797221 0 0 0 4.49811-60.933701h32.009807v-63.96731H224.016345V671.983655h32.009807a468.797221 468.797221 0 0 0 4.49811 60.933701c-75.317193-15.272653-132.485034-87.399326-132.485034-173.961794v-445.888242zM959.980386 558.955562v-445.888242c0-132.903463-101.416692-241.06732-226.108489-241.06732H290.128103C165.436306-128 64.019614-19.836143 64.019614 113.06732V558.955562C64.019614 686.785576 157.747676 791.392788 275.692308 799.238329 292.743283 849.815916 324.439269 896 384.013076 896h256.026152c59.573807 0 91.269793-46.184084 108.268464-96.761671C866.252324 791.392788 959.980386 686.785576 959.980386 558.955562z m-255.973848 113.028093c0 52.303606-15.691082 159.996731-63.96731 159.996731H384.013076C335.998366 831.980386 320.307284 724.234958 319.993462 671.983655z m-102.096639-368.897334H545.21279V395.297579a28.505465 28.505465 0 0 1-57.010931 0v-120.716723a28.505465 28.505465 0 0 1 28.505466-28.505465h85.359485a28.505465 28.505465 0 0 1 0 57.01093z m-83.68577 208.011442a224.277863 224.277863 0 1 1 224.277863-224.277863 224.277863 224.277863 0 0 1-224.068648 224.277863z m0-391.544795a167.371539 167.371539 0 1 0 167.37154 167.371539 167.371539 167.371539 0 0 0-167.37154-167.371539z"  horiz-adv-x="1024" />

    
    <glyph glyph-name="car" unicode="&#58896;" d="M900.899 546.324l-62.53 140.653c-7.446 41.809-44.077 73.62-87.993 73.62h-476.85c-43.913 0-80.541-31.811-88.023-73.62l-62.518-140.654c-33.903-12.705-58.086-45.469-58.086-83.743v-238.423c0-44.236 32.285-81.073 74.495-88.177v-1.266c0-65.716 53.509-119.194 119.226-119.194 65.747 0 119.226 53.478 119.226 119.194h268.219c0-65.716 53.478-119.194 119.195-119.194 65.751 0 119.225 53.478 119.225 119.194v1.266c42.239 7.104 74.531 43.941 74.531 88.177V462.582c0 38.273-24.222 71.037-58.117 83.742zM899.4 224.158c0-16.466-13.356-29.823-29.797-29.823h-44.7v-59.62c0-32.896-26.707-59.584-59.644-59.584-32.907 0-59.58 26.688-59.58 59.584v59.621H318.235v-59.62c0-32.896-26.713-59.584-59.615-59.584-32.933 0-59.615 26.688-59.615 59.584v59.62h-44.703c-16.437 0-29.794 13.357-29.794 29.823V462.582c0 16.435 13.356 29.791 29.794 29.791h9.944l79.459 178.807c0 16.466 13.356 29.832 29.822 29.832h476.848c16.466 0 29.795-13.365 29.795-29.832l79.49-178.806h9.944c16.44 0 29.797-13.356 29.797-29.791v-238.424zM303.315 432.763H720.56c16.465 0 29.814 13.348 29.814 29.819 0 16.435-13.35 29.791-29.814 29.791H303.315c-16.432 0-29.789-13.356-29.789-29.791 0.001-16.471 13.357-29.82 29.789-29.82z m-29.788-59.584c-32.932 0-59.61-26.715-59.61-59.622 0-32.932 26.677-59.61 59.61-59.61 32.907 0 59.62 26.678 59.62 59.61 0 32.907-26.713 59.622-59.62 59.622z m476.848 0c-32.933 0-59.612-26.715-59.612-59.622 0-32.932 26.677-59.61 59.612-59.61 32.906 0 59.62 26.678 59.62 59.61 0 32.907-26.714 59.622-59.62 59.622z"  horiz-adv-x="1024" />

    
    <glyph glyph-name="case_dspaj" unicode="&#58897;" d="M435.13616-125.446384H111.848379C50.050873-125.446384 0-70.799002 0-3.383541V773.937157C0 841.352618 50.050873 896 111.848379 896h667.515212c61.797506 0 111.848379-54.647382 111.848379-122.062843v-252.297257h-58.222444V773.937157c0 32.175561-24.00399 58.733167-53.625935 58.733167H111.848379c-29.621945 0-53.625935-26.557606-53.625935-58.733167v-777.320698c0-32.175561 23.493267-60.77606 53.115212-60.77606l322.777057-3.064339 1.021447-58.222444zM156.281297 595.18404h570.477805v-57.200998H156.281297V595.18404zM156.281297 445.031421h403.982045v-57.200997H156.281297V445.031421zM156.281297 274.449875h335.034414v-57.200997H156.281297v57.200997zM965.266833 79.864339h-57.711721L822.264339 189.669825c36.77207 19.918204 62.308229 58.733167 62.30823 104.187532 0 65.372569-53.115212 118.998504-118.998504 118.998503s-118.998504-53.115212-118.998504-118.998503c0-44.943641 25.53616-83.758603 62.30823-104.187532L623.082294 79.864339h-57.71172c-30.643392 0-56.179551-25.025436-56.179552-56.179551v-95.505237c0-30.643392 25.025436-56.179551 56.179552-56.179551H965.266833c30.643392 0 56.179551 25.025436 56.179551 56.179551v95.505237c0 31.154115-25.025436 56.179551-56.179551 56.179551zM766.084788 354.633416c33.707731 0 61.286783-27.579052 61.286783-61.286783s-27.579052-61.286783-61.286783-61.286783-61.286783 27.579052-61.286783 61.286783c-0.510723 33.707731 27.068329 61.286783 61.286783 61.286783z m0-186.413965l68.947631-88.355112h-138.405985l69.458354 88.355112z m198.160599-238.50773l-396.321197-1.53217-1.53217 93.973067 397.853367 1.53217v-93.973067zM862.611471 478.739152c-15.832419 0-29.111222 13.278803-29.111222 29.111222V609.995012c0 15.832419 13.278803 29.111222 29.111222 29.111222s29.111222-13.278803 29.111222-29.111222v-102.144638c0-15.832419-13.278803-29.111222-29.111222-29.111222zM463.225935-96.335162c0-15.832419-13.278803-29.111222-29.111222-29.111222H332.480798c-15.832419 0-29.111222 13.278803-29.111222 29.111222s13.278803 29.111222 29.111222 29.111222H434.114713c16.343142 0 29.111222-13.278803 29.111222-29.111222z"  horiz-adv-x="1024" />

    
    <glyph glyph-name="icon-test9" unicode="&#58898;" d="M931.6 310.4v-79c28.6 60.2 44.8 127.4 44.8 198.4C976.4 685 769.4 892 514.2 892S52 685 52 429.8c0-3.2 0.2-6.4 0.2-9.6l166 206h96.4L171.8 410.4h46.4v54.8l99.2 154.6V228h-99.2v82.4H67.6c43-161 170.6-287.4 332.4-328.6-10.4-26.2-40.6-89.4-90.8-100.6-62.2-14 168.8-3.4 333.6 104.6C769.4 22.4 873.6 111.6 930.2 228h-97.6v82.4H666.4V420l166.2 206.2h94L786.2 410.4h46.4v59l99.2 154v-313zM366.2 288c-4.8 11.2-7.2 23.2-7.2 36V538.4c0 12.8 2.4 24.8 7.2 36 4.8 11.2 11.4 21 19.6 29.2 8.2 8.2 18 14.8 29.2 19.6 11.2 4.8 23.2 7.2 36 7.2h81.6c12.8 0 24.8-2.4 36-7.2 11-4.8 20.6-11.2 28.8-19.2l-88.6-129.4v23c0 4.8-1.6 8.8-4.8 12-3.2 3.2-7.2 4.8-12 4.8s-8.8-1.6-12-4.8c-3.2-3.2-4.8-7.2-4.8-12v-72L372.6 276c-2.4 3.8-4.6 7.8-6.4 12z m258.2 36c0-12.8-2.4-24.8-7.2-36-4.8-11.2-11.4-21-19.6-29.2-8.2-8.2-18-14.8-29.2-19.6-11.2-4.8-23.2-7.2-36-7.2h-81.6c-12.8 0-24.8 2.4-36 7.2-11.2 4.8-21 11.4-29.2 19.6-3.6 3.6-7 7.8-10 12l99.2 144.6v-50.6c0-4.8 1.6-8.8 4.8-12 3.2-3.2 7.2-4.8 12-4.8s8.8 1.6 12 4.8c3.2 3.2 4.8 7.2 4.8 12v99.6L601 599.6c6.6-7.4 12-15.8 16-25.2 4.8-11.2 7.2-23.2 7.2-36V324z"  horiz-adv-x="1024" />

    
    <glyph glyph-name="case_ddbaj" unicode="&#58899;" d="M219.648 603.648h512v-73.216h-512zM219.648 384H512v-73.216H219.648zM402.432 859.648h146.432v-73.216H402.432zM804.352 786.432c40.448 0 73.216-32.768 73.216-73.216v-256h73.216v256c0 80.384-66.048 146.432-146.432 146.432H768v-73.216h36.352zM950.784 347.648h-256c-40.448 0-73.216-32.768-73.216-73.216v-398.848l201.216 135.168 201.216-135.168v398.848c0 39.936-32.768 73.216-73.216 73.216z m0-332.8l-128 83.968-128-83.968v259.584h256v-259.584zM288.768 713.216c-22.016 0-36.352 14.848-36.352 36.352V859.648c0 22.016 14.848 36.352 36.352 36.352s36.352-14.848 36.352-36.352v-109.568c0.512-22.528-14.336-36.864-36.352-36.864zM654.848 713.216c-22.016 0-36.352 14.848-36.352 36.352V859.648c0 22.016 14.848 36.352 36.352 36.352 21.504 0 36.352-14.848 36.352-36.352v-109.568c0-22.528-14.848-36.864-36.352-36.864zM151.552-54.784c-40.448 0-73.216 32.768-73.216 73.216V713.216c0 40.448 32.768 73.216 73.216 73.216h36.352V859.648h-36.352C71.168 859.648 5.12 793.6 5.12 713.216v-694.784C5.12-61.952 71.168-128 151.552-128H517.12v73.216H151.552zM914.432 421.376c-19.968 0-36.352 16.384-36.352 36.352V635.904c0 19.968 16.384 36.352 36.352 36.352 19.968 0 36.352-16.384 36.352-36.352v-177.664c0-20.48-16.384-36.864-36.352-36.864zM560.64-90.624v-1.024c0-19.968-16.384-35.84-35.84-35.84h-117.76c-19.968 0-35.84 16.384-35.84 35.84v1.024c0 19.968 16.384 35.84 35.84 35.84h117.76c19.968 0 35.84-16.384 35.84-35.84z"  horiz-adv-x="1024" />

    
    <glyph glyph-name="case" unicode="&#58900;" d="M869.888 787.456h-210.944c-20.992 58.368-76.8 100.864-142.336 100.864S396.288 845.824 374.784 787.456H164.352c-55.296 0-100.864-45.568-100.864-100.864v-706.048c0-55.296 45.568-100.864 100.864-100.864H870.4c55.296 0 100.864 45.568 100.864 100.864V686.592c0 55.296-45.568 100.864-101.376 100.864z m-0.512-517.12c6.144-0.512 9.728-9.216 15.36-13.312 6.656-5.12 7.168-9.728 2.56-16.896-6.144-9.728-11.264-20.992-16.384-31.232-2.048-3.584-4.096-6.144-8.192-8.192-28.672-11.776-52.224-29.696-72.192-52.736-6.144-6.656-12.8-12.8-19.456-19.456-1.024-1.024-2.048-2.048-3.584-3.072-1.024 1.024-2.56 2.048-3.072 3.072-5.12 5.12-10.24 10.752-15.872 15.36-3.072 3.072-2.56 4.608 0 7.68 12.288 12.288 24.576 25.088 37.376 36.864 10.24 9.216 18.944 19.456 23.552 32.768 7.168 20.48 20.992 34.304 41.472 41.472 6.656 1.536 12.8 8.192 18.432 7.68zM517.12 787.456c27.648 0 50.176-22.528 50.176-50.688 0-27.648-22.528-50.176-50.176-50.176s-50.176 22.528-50.176 50.176c0 28.16 22.528 50.688 50.176 50.688zM255.488 591.872h532.48c20.992 0 37.888-16.896 37.888-37.888s-16.896-37.888-37.888-37.888h-532.48c-20.992 0-37.888 16.896-37.888 37.888s16.896 37.888 37.888 37.888z m0-169.984h532.48c20.992 0 37.888-16.896 37.888-37.888s-16.896-37.888-37.888-37.888h-532.48c-20.992 0-37.888 16.896-37.888 37.888s16.896 37.888 37.888 37.888z m228.352-266.752H255.488c-20.992 0-37.888 16.896-37.888 37.888s16.896 37.888 37.888 37.888h228.352c20.992 0 37.888-16.896 37.888-37.888s-16.896-37.888-37.888-37.888z m224.768-111.616c-33.792-33.28-67.072-67.584-101.376-100.864-16.384-15.872-40.96-11.776-50.688 8.192-2.048 4.608-2.56 5.632-2.56 15.36-1.024 8.192 2.56 15.36 8.704 20.992 33.28 33.792 67.072 67.072 100.864 100.864 2.56 2.56 3.584 3.072 6.144 0 12.8-12.8 25.6-26.112 38.912-38.4 2.56-2.56 2.56-3.584 0-6.144z m179.712-67.072c-1.536-5.12-3.072-7.168-7.68-2.048-11.776 12.288-24.064 24.576-36.352 36.864-6.656 6.144-14.336 8.704-23.04 5.632-7.68-3.072-12.288-8.704-13.312-16.896-1.024-8.192 2.56-14.336 8.192-19.968 13.312-12.8 26.112-26.112 39.936-39.424-37.888-19.968-84.48 6.144-89.6 49.152-1.024 8.192-1.024 16.896 2.048 24.576 1.024 3.584 0.512 5.632-2.048 8.192l-122.88 122.88c-2.56 2.56-5.12 3.072-8.704 2.048-34.816-9.728-71.68 12.288-78.848 48.128-2.56 13.312-2.048 26.624 4.096 38.912 2.56 0.512 3.584-1.536 4.608-3.072 12.288-11.776 24.064-24.064 36.352-35.84 10.24-10.24 22.528-10.752 31.744-1.536 8.704 8.704 8.192 21.504-1.536 31.744l-40.448 40.448c19.968 8.192 38.4 8.704 56.832-1.024 26.112-13.824 39.424-44.544 31.232-72.704-1.024-4.608 0-6.656 2.56-9.728 40.448-40.448 81.408-80.896 121.856-121.856 3.072-3.072 6.144-3.584 10.24-2.56 24.576 5.632 46.08-0.512 62.976-18.944 15.36-18.432 19.968-39.424 11.776-62.976z"  horiz-adv-x="1024" />

    
    <glyph glyph-name="case_hsz" unicode="&#58901;" d="M927.764148 703.989975h-159.982305v128.108829A64.003171 64.003171 0 0 1 703.778672 895.999488H320.118353a64.003171 64.003171 0 0 1-64.259389-64.003171v-128.108829H95.876659a31.975964 31.975964 0 1 1 0-64.105657h32.027207v-639.673003a128.108828 128.108828 0 0 1 128.108829-128.108828h511.922878a128.108828 128.108828 0 0 1 128.108829 128.108828V639.781831h31.975963a31.975964 31.975964 0 0 1 0 63.951927zM320.118353 831.996317h383.916537v-128.108829H320.118353z m511.871635-831.887489a63.900684 63.900684 0 0 0-63.951928-63.900683H255.858964A63.951927 63.951927 0 0 0 192.009524 0.108828V639.781831h639.724246z m-223.934233 128.108829a31.975964 31.975964 0 0 1 31.975964 32.027207V480.055743a31.975964 31.975964 0 0 1-63.951927 0v-319.913366a31.975964 31.975964 0 0 1 31.719746-32.027207z m-192.009512 0a31.975964 31.975964 0 0 1 32.027207 32.027207V480.055743a31.975964 31.975964 0 1 1-63.951927 0v-319.913366a31.975964 31.975964 0 0 1 31.668503-32.027207z"  horiz-adv-x="1024" />

    
    <glyph glyph-name="baobiao" unicode="&#58902;" d="M592.247 831.24l-400.016-0.9c-27.24 0-49.32-22.08-49.32-49.32v-789.13c0-27.24 22.08-49.32 49.32-49.32l641.168-6.165c27.24 0 49.32 22.08 49.32 49.32V534.417L592.247 831.24z m50.034-126.137l60.684-60.68 60.681-60.685H642.281V705.103z m191.117-719.378l-641.168 6.166V781.02l384.667 1.102 16.063-27.695v-170.69c0-27.24 22.08-49.32 49.32-49.32h170.687l20.431-20.432v-528.26zM290.872 626.893h147.962v-49.32H290.872v49.32zM290.872 478.931h394.564v-49.32H290.872v49.32zM290.872 330.97h394.564v-49.32H290.872v49.32zM290.872 183.008h394.564v-49.32H290.872v49.32z"  horiz-adv-x="1024" />

    
    <glyph glyph-name="case_glzm" unicode="&#58903;" d="M596.529317 895.997527a584.751003 584.751003 0 0 1-231.726944-47.243404A584.165341 584.165341 0 0 1 47.308478 531.260228a593.991448 593.991448 0 0 1 0.650735-466.121904 596.659464 596.659464 0 0 1 133.140502-193.138324H1011.893845a597.50542 597.50542 0 0 1 133.400797 193.138324 594.707257 594.707257 0 0 1 0.650735 466.121904 584.555782 584.555782 0 0 1-317.558969 317.493895A584.230414 584.230414 0 0 1 596.529317 895.997527zM976.103388-42.753637H217.02032a492.671917 492.671917 0 0 0-131.904105 342.286921 501.977435 501.977435 0 0 0 68.587532 256.324749 507.573762 507.573762 0 0 0 186.435747 186.435747 501.977435 501.977435 0 0 0 256.389823 68.522458 501.912362 501.912362 0 0 0 256.32475-68.522458 508.289571 508.289571 0 0 0 186.435747-186.435747 501.066406 501.066406 0 0 0 68.587531-256.324749 493.517873 493.517873 0 0 0-131.773957-342.286921zM237.062976 323.350206l-107.826887 19.522068 10.672063 59.932748 107.826888-19.912509z m708.325692 59.867675l107.826887 20.042656 10.60699-59.867674L955.995658 323.350206zM340.920377 555.142224l-70.604812 83.944892 46.657742 38.523547 70.409591-83.879818z m511.282954 0l-46.657742 38.588621 70.604812 83.879818 46.592668-38.523547zM566.139965 768.258131h61.169145v-109.258506H566.139965z m33.122441-471.392863l-183.832804 204.981711L517.920457 251.769291a91.102983 91.102983 0 0 1 58.566204-135.157782A87.068422 87.068422 0 0 1 645.724928 128.129529a91.102983 91.102983 0 0 1 40.670974 57.329806 86.938275 86.938275 0 0 1-11.322799 68.587531 88.630188 88.630188 0 0 1-75.940844 42.623181z"  horiz-adv-x="1193" />

    
    <glyph glyph-name="case_scj" unicode="&#58904;" d="M1070.102771 508.050086a43.510366 43.510366 0 0 1-35.032501 29.56743l-317.814847 46.172836-142.161889 287.967157A43.580431 43.580431 0 0 1 516.869518 891.51584 44.211016 44.211016 0 0 1 497.461512 871.757509l-142.442148-287.967157-317.814848-46.172836a43.510366 43.510366 0 0 1-24.102361-74.128772l229.953336-224.208005L189.175505-77.202874a43.510366 43.510366 0 0 1 63.058501-45.822511l284.253712 149.448649 284.253712-149.448649a52.198426 52.198426 0 0 1 45.752446 3.293055 42.039001 42.039001 0 0 1 17.306056 42.529456l-54.300377 316.483613 229.953336 224.208005a43.440301 43.440301 0 0 1 11.000205 44.561342z m-318.025043-222.456381a43.370236 43.370236 0 0 1-12.47157-38.465686l43.230106-252.234006-226.52015 119.110503a43.580431 43.580431 0 0 1-40.427506 0l-226.520151-119.110503 43.300171 252.234006a43.580431 43.580431 0 0 1-12.541635 38.465686l-183.21998 178.665754 253.214917 36.784126A43.370236 43.370236 0 0 1 422.842285 524.655491l113.295108 229.673076L649.362436 524.655491a43.440301 43.440301 0 0 1 32.720356-23.752036l253.284981-36.784126z"  horiz-adv-x="1072" />

    
    <glyph glyph-name="case_tzgg" unicode="&#58905;" d="M1133.538196 347.397123h-73.523912a36.561436 36.561436 0 1 0 0 73.122872h73.523912a36.561436 36.561436 0 0 0 0-73.122872zM987.225612 786.134355V822.428432l73.122872 73.523911 36.628276-36.561436V822.428432l-73.523912-73.523912z m-164.493042-542.806987a36.026717 36.026717 0 0 0-18.314138-5.614553 36.561436 36.561436 0 0 0 0 73.122872v1.871518a91.37017 91.37017 0 0 1 0 179.064145v1.871517a36.561436 36.561436 0 0 0 0 73.122872 35.358317 35.358317 0 0 0 18.314138-5.614553 162.688364 162.688364 0 0 0 0-317.823818z m-164.559882-371.295753s-34.623078-1.336798-55.477133 13.367984l-346.765503 242.628908H73.122872A73.122872 73.122872 0 0 0 0 200.81718V566.765739a73.122872 73.122872 0 0 0 73.122872 73.122872h182.80718L602.695555 882.584359a70.048236 70.048236 0 0 0 41.908629 13.367984s86.891895 5.748233 86.891896-73.122872v-877.608144a73.122872 73.122872 0 0 0-73.323392-73.189712z m0 877.541304c0 76.197508-36.561436 36.561436-36.561436 36.561436L292.491488 566.765739H109.684308a36.561436 36.561436 0 0 1-36.561436-36.561436v-292.491488a36.561436 36.561436 0 0 1 36.561436-36.895635h182.80718L621.611252-18.284077s36.561436-31.949482 36.561436 0z m438.804072-804.418432v-36.561436l-36.628276-36.561436-73.122872 73.122872v36.561436l36.561436 36.561436z"  horiz-adv-x="1170" />

    
    <glyph glyph-name="case_wdrc" unicode="&#58906;" d="M913.067151 820.145995h-222.91196V861.124596a34.875404 34.875404 0 1 1-69.750809 0v-40.978601h-219.715048V861.124596a34.875404 34.875404 0 1 1-69.750809 0v-40.978601H110.932849a34.875404 34.875404 0 0 1-34.875404-34.875404v-878.395187a34.875404 34.875404 0 0 1 34.875404-34.875404h802.134302a34.875404 34.875404 0 0 1 34.875404 34.875404V785.270591a34.875404 34.875404 0 0 1-34.875404 34.875404zM330.996651 750.685815v-40.687972a34.875404 34.875404 0 0 1 69.750809 0v40.687972h219.715048v-40.687972a34.875404 34.875404 0 0 1 69.750809 0v40.687972H878.191747v-123.633309H145.808253V750.685815zM145.808253-58.307317V557.359823h732.383494v-615.66714zM345.876824 430.994607H232.996764a16.507691 16.507691 0 0 1-16.507691-16.449565v-85.909747a16.507691 16.507691 0 0 1 16.507691-16.507691h112.88006a16.507691 16.507691 0 0 1 16.507691 16.507691V414.83567A16.507691 16.507691 0 0 1 345.876824 430.994607zM565.998751 430.994607H453.176818A16.507691 16.507691 0 0 1 436.436624 414.83567v-86.200375a16.507691 16.507691 0 0 1 16.507691-16.507691h113.054436a16.507691 16.507691 0 0 1 16.507692 16.507691V414.83567A16.507691 16.507691 0 0 1 565.998751 430.994607zM786.120679 430.994607h-112.821933a16.449566 16.449566 0 0 1-16.449566-16.449565v-85.909747a16.449566 16.449566 0 0 1 16.449566-16.507691h112.821933a16.507691 16.507691 0 0 1 16.507691 16.507691V414.83567a16.507691 16.507691 0 0 1-16.507691 16.158937zM345.876824 215.232105H232.996764a16.449566 16.449566 0 0 1-16.449565-16.740194v-86.200374a16.507691 16.507691 0 0 1 16.449565-16.217063h112.88006a16.507691 16.507691 0 0 1 16.507691 16.507691V198.491911a16.449566 16.449566 0 0 1-16.507691 16.740194zM565.998751 215.232105H453.176818A16.449566 16.449566 0 0 1 436.436624 198.491911v-86.200374a16.507691 16.507691 0 0 1 16.507691-16.507692h113.054436a16.507691 16.507691 0 0 1 16.507692 16.507692V198.491911a16.449566 16.449566 0 0 1-16.507692 16.740194zM786.120679 215.232105h-112.821933a16.39144 16.39144 0 0 1-16.449566-16.740194v-86.200374a16.449566 16.449566 0 0 1 16.449566-16.507692h112.821933a16.507691 16.507691 0 0 1 16.507691 16.507692V198.491911a16.449566 16.449566 0 0 1-16.507691 16.740194z"  horiz-adv-x="1024" />

    
    <glyph glyph-name="case_xjan" unicode="&#58907;" d="M511.744-60.928H134.912c-20.48 0-35.84 15.36-35.84 35.84V787.968c0 20.48 15.36 35.84 35.84 35.84h682.496c20.48 0 30.72-15.36 30.72-35.84v-427.008c0-15.36 12.8-35.328 35.84-35.84 27.136 0 35.84 20.48 35.84 35.84V813.568c0 46.08-35.84 82.432-81.408 82.432H109.312C63.744 896 27.904 860.16 27.904 813.568v-859.136c0-46.08 35.84-82.432 81.408-82.432h402.432c15.36 0 30.72 15.36 30.72 30.72s-15.36 36.352-30.72 36.352zM725.76 617.984H252.16c-22.528 0-40.96 18.432-40.96 40.96s18.432 40.96 40.96 40.96h473.6c22.528 0 40.96-18.432 40.96-40.96s-18.432-40.96-40.96-40.96zM733.44 392.704H259.84c-22.528 0-40.96 18.432-40.96 40.96s18.432 40.96 40.96 40.96h473.6c22.528 0 40.96-18.432 40.96-40.96s-18.432-40.96-40.96-40.96zM532.224 209.92H275.2c-22.528 0-40.96 18.432-40.96 40.96s18.432 40.96 40.96 40.96h257.024c22.528 0 40.96-18.432 40.96-40.96s-18.432-40.96-40.96-40.96zM838.4 223.744v-314.88c0-19.968-16.384-36.864-36.864-36.864-19.968 0-36.864 16.384-36.864 36.864v314.88c0 19.968 16.384 36.864 36.864 36.864s36.864-16.384 36.864-36.864zM644.352 102.912h314.88c19.968 0 36.864-16.384 36.864-36.864 0-19.968-16.384-36.864-36.864-36.864h-314.88c-19.968 0-36.864 16.384-36.864 36.864s16.384 36.864 36.864 36.864z"  horiz-adv-x="1024" />

    
    <glyph glyph-name="case_wdsq" unicode="&#58908;" d="M490.673882 128.262924H340.573688a32.076686 32.076686 0 0 0 0 64.270227H490.673882a32.076686 32.076686 0 1 0 0-64.270227z m166.576744 203.327627h-316.676938a32.076686 32.076686 0 0 0 0 64.270227h316.676938a32.076686 32.076686 0 0 0 0-64.270227z m0 195.907338h-316.676938a32.076686 32.076686 0 0 0 0 64.270227h316.676938a32.076686 32.076686 0 0 0 0-64.270227zM964.579166 670.995778L783.979828 884.314504a31.959831 31.959831 0 0 1-24.481114 11.685496H131.520168A79.753509 79.753509 0 0 1 51.883514 816.363346v-864.726692a79.753509 79.753509 0 0 1 79.636654-79.636654h760.959489a79.695082 79.695082 0 0 1 79.636654 79.636654V650.254023a32.018259 32.018259 0 0 1-7.537145 20.741755zM789.238301 779.145042l83.726578-99.326715H789.238301z m103.241356-842.933242H131.520168a15.483282 15.483282 0 0 0-15.366427 15.424854v864.726692A15.483282 15.483282 0 0 0 131.520168 831.729773h593.564761v-183.81285a32.076686 32.076686 0 0 1 32.076686-32.368823h150.859751v-663.911446a15.541709 15.541709 0 0 0-15.541709-15.483282z"  horiz-adv-x="1024" />

    
    <glyph glyph-name="case_xsx" unicode="&#58909;" d="M128.039228 113.06732c0-97.598529 72.702012-177.047707 162.141179-177.047706h443.743794c89.439166 0 162.141179 79.449178 162.141179 177.047706V558.955562c0 86.562468-57.220145 158.689141-132.485035 173.961794a468.797221 468.797221 0 0 0 4.49811-60.933701h32.009807v-63.96731H224.016345V671.983655h32.009807a468.797221 468.797221 0 0 0 4.49811 60.933701c-75.317193-15.272653-132.485034-87.399326-132.485034-173.961794v-445.888242zM959.980386 558.955562v-445.888242c0-132.903463-101.416692-241.06732-226.108489-241.06732H290.128103C165.436306-128 64.019614-19.836143 64.019614 113.06732V558.955562C64.019614 686.785576 157.747676 791.392788 275.692308 799.238329 292.743283 849.815916 324.439269 896 384.013076 896h256.026152c59.573807 0 91.269793-46.184084 108.268464-96.761671C866.252324 791.392788 959.980386 686.785576 959.980386 558.955562z m-255.973848 113.028093c0 52.303606-15.691082 159.996731-63.96731 159.996731H384.013076C335.998366 831.980386 320.307284 724.234958 319.993462 671.983655zM419.161099 366.059863h0.523036q0 47.073245 19.038513 72.754316 21.18296 30.59761 69.145367 30.649913 38.756972 0 59.939933-21.392175t20.45071-58.475431a84.836449 84.836449 0 0 0-19.770763-52.303606l-11.977526-13.546634q-66.320973-59.835325-79.710696-88.445398-14.017366-26.151803-14.06967-67.73317v-12.134437h75.264889v12.134437a96.657064 96.657064 0 0 0 11.245276 47.073245 109.837573 109.837573 0 0 0 29.656144 37.083257q50.054551 44.248851 59.259986 55.651037 26.779446 34.938809 26.779446 86.980897 0 64.908775-42.313617 101.992032t-109.837573 37.815507q-78.455409 0-122.70426-45.661048-42.993564-43.464297-44.405761-117.578507v-1.935233a5.230361 5.230361 0 0 1 0-0.889161v-2.249055a36.874042 36.874042 0 0 1 73.591173 0z m118.101543-263.191746a47.073245 47.073245 0 0 0 14.80192-36.612524 51.100623 51.100623 0 0 0-15.691082-37.083257 52.303606 52.303606 0 0 0-36.612524-14.278884 50.839105 50.839105 0 0 0-51.519052 51.362141 47.073245 47.073245 0 0 0 14.801921 36.612524 49.374604 49.374604 0 0 0 36.612524 14.278885 50.106855 50.106855 0 0 0 37.606293-14.278885z"  horiz-adv-x="1024" />

    
    <glyph glyph-name="case_zhcx" unicode="&#58910;" d="M230.335562 703.072464h511.744128v-63.968016h-511.744128V703.072464z m-1.535233-128.447776h511.744128v-63.968016h-511.744128V574.624688zM139.245107 832.031984h689.831084c22.516742 0 40.427786-17.911044 40.427786-40.427786v-370.502749H933.983737V832.031984C933.983737 867.342329 905.326066 896 870.015721 896h-767.616191C67.089185 896 38.431514 867.342329 38.431514 832.031984v-895.552224c0-35.310345 28.657671-63.968016 63.968016-63.968016H550.175642v63.968016H142.827316c-22.516742 0-40.427786 17.911044-40.427786 40.427786V794.674663c0 20.981509 16.375812 37.357321 36.845577 37.357321zM229.823817 318.752624v-63.968016h155.570215c0 22.004998 3.070465 43.498251 9.211395 63.968016H229.823817z m261.50125 127.936032H228.288585v-63.968016h194.462769c18.422789 25.587206 41.451274 47.592204 68.573713 63.968016z m484.621689-514.814593l-146.870565 144.823588c33.775112 39.404298 54.244878 90.066967 54.244878 145.847077 0 123.842079-100.301849 224.143928-224.143928 224.143928s-224.143928-100.301849-224.143928-224.143928 100.301849-224.143928 224.143928-224.143928c45.033483 0 86.484758 13.305347 121.283358 35.822089l149.94103-147.894053c12.281859-12.281859 32.751624-12.281859 45.033483 0 12.793603 12.793603 12.793603 32.751624 0.511744 45.545227z m-476.433783 290.670665c0 88.531734 71.644178 160.175912 159.664168 160.175912s159.664168-71.644178 159.664168-160.175912-71.644178-160.175912-159.664168-160.175912-159.664168 72.155922-159.664168 160.175912zM902.255602 371.462269c-17.3993 0-32.23988 14.328836-32.239881 31.728136V499.910045c0 17.3993 14.328836 32.23988 32.239881 32.23988 17.3993 0 32.23988-14.328836 32.23988-32.23988v-96.207896c-0.511744-17.911044-14.84058-32.23988-32.23988-32.23988zM583.950754-95.76012c0-17.3993-14.328836-32.23988-31.728136-32.23988H455.502978c-17.3993 0-31.728136 14.328836-31.728136 32.23988 0 17.3993 14.328836 32.23988 31.728136 32.23988h96.207896c17.911044 0 32.23988-14.328836 32.23988-32.23988z"  horiz-adv-x="1024" />

    
    <glyph glyph-name="chart" unicode="&#58911;" d="M64 448h256v-512H64V448z m640 192h256v-704H704V640zM384 832h256v-896H384V832z"  horiz-adv-x="1024" />

    
    <glyph glyph-name="case_zsk" unicode="&#58912;" d="M841.984 896h-660.48C118.528 896 67.328 845.312 67.328 783.36v-798.72c0-61.952 51.2-112.64 114.176-112.64h660.992c62.976 0 114.176 50.688 114.176 112.64V783.36c-0.512 61.952-51.712 112.64-114.688 112.64z m-112.64-66.56v-305.152l-35.328 23.552c-14.336 13.824-37.376 13.824-51.712 0.512l-37.888-25.6V829.44h124.928z m161.28-844.8c0-20.48-27.136-47.616-48.128-47.616H181.504c-20.992 0-48.128 27.136-48.128 47.616V783.36c0 20.48 22.016 47.616 43.008 47.616H538.368v-384c0-14.848 8.704-28.16 22.528-34.304 13.824-6.144 29.696-3.072 40.96 6.656l65.536 59.904L730.88 419.84c7.168-6.656 16.384-10.24 26.112-10.24 5.12 0 10.24 1.024 14.848 3.072 13.824 6.144 23.04 19.456 23.04 34.304v384h47.104c20.992 0 48.128-27.136 48.128-47.616v-798.72zM532.224 328.704H282.368c-20.992 0-37.888-16.896-37.888-37.888 0-20.992 16.896-37.888 37.888-37.888h249.856c20.992 0 37.888 16.896 37.888 37.888 0 20.992-16.896 37.888-37.888 37.888zM431.36 133.632H282.368c-20.992 0-37.888-16.896-37.888-37.888 0-20.992 16.896-37.888 37.888-37.888h148.992c20.992 0 37.888 16.896 37.888 37.888 0 20.992-16.896 37.888-37.888 37.888z"  horiz-adv-x="1024" />

    
    <glyph glyph-name="caseStatistics" unicode="&#58913;" d="M315.076923 344.615385H157.538462a157.979569 157.979569 0 0 1-157.538462-157.538462v-157.538461a157.979569 157.979569 0 0 1 157.538462-157.538462h157.538461a157.979569 157.979569 0 0 1 157.538462 157.538462v157.538461a157.979569 157.979569 0 0 1-157.538462 157.538462z m78.769231-315.076923A78.958277 78.958277 0 0 0 315.076923-49.230769H157.538462a79.021292 79.021292 0 0 0-78.769231 78.769231v157.538461A79.021292 79.021292 0 0 0 157.538462 265.846154h157.538461a78.958277 78.958277 0 0 0 78.769231-78.769231zM866.461538 896h-157.538461a157.979569 157.979569 0 0 1-157.538462-157.538462v-157.538461a157.979569 157.979569 0 0 1 157.538462-157.538462h157.538461a157.979569 157.979569 0 0 1 157.538462 157.538462V738.461538a157.979569 157.979569 0 0 1-157.538462 157.538462zM945.230769 580.923077a78.958277 78.958277 0 0 0-78.769231-78.769231h-157.538461A78.958277 78.958277 0 0 0 630.153846 580.923077V738.461538a79.021292 79.021292 0 0 0 78.769231 78.769231h157.538461A79.021292 79.021292 0 0 0 945.230769 738.461538z m-78.769231-236.307692h-157.538461a157.979569 157.979569 0 0 1-157.538462-157.538462v-157.538461a157.979569 157.979569 0 0 1 157.538462-157.538462h157.538461a157.979569 157.979569 0 0 1 157.538462 157.538462v157.538461a157.979569 157.979569 0 0 1-157.538462 157.538462z m78.769231-315.076923a78.958277 78.958277 0 0 0-78.769231-78.769231h-157.538461a78.958277 78.958277 0 0 0-78.769231 78.769231v157.538461a78.958277 78.958277 0 0 0 78.769231 78.769231h157.538461a78.958277 78.958277 0 0 0 78.769231-78.769231zM315.076923 896H157.538462A157.979569 157.979569 0 0 1 0 738.461538v-157.538461a157.979569 157.979569 0 0 1 157.538462-157.538462h157.538461a157.979569 157.979569 0 0 1 157.538462 157.538462V738.461538A157.979569 157.979569 0 0 1 315.076923 896z m78.769231-315.076923A78.958277 78.958277 0 0 0 315.076923 502.153846H157.538462A79.021292 79.021292 0 0 0 78.769231 580.923077V738.461538A79.021292 79.021292 0 0 0 157.538462 817.230769h157.538461A79.021292 79.021292 0 0 0 393.846154 738.461538z"  horiz-adv-x="1024" />

    
    <glyph glyph-name="component" unicode="&#58914;" d="M64 832h384v-384H64V832z m0-512h384v-384H64V320z m512 0h384v-384H576V320z m192 128c106.039 0 192 85.961 192 192S874.039 832 768 832s-192-85.961-192-192 85.961-192 192-192z"  horiz-adv-x="1024" />

    
    <glyph glyph-name="customStatement" unicode="&#58915;" d="M0.626764 18.319199h219.449499V603.4202H0.626764z m73.130301 511.970701H147.121757v-438.840401H73.757065zM512.597465 164.5798V896H293.206564v-877.680801h73.1303V822.8697h73.130301v-658.2899zM658.916664 676.550501h73.1303v-292.521202h73.130301V749.505007H585.786364v-438.606008h73.1303zM1002.652515 303.222661l-52.738197 60.004349a71.137969 71.137969 0 0 1-50.980258 20.802289 74.88824 74.88824 0 0 1-52.093619-21.271073l-407.373276-332.95382v-157.804406h157.277024l405.20515 328.793362a72.778712 72.778712 0 0 1 0.703176 102.429299z m-431.867239-358.033763h-58.187811v58.597998l384.871645 307.346495s0.351588-0.351588 0.468784-0.351588l52.210816-60.180143z"  horiz-adv-x="1024" />

    
    <glyph glyph-name="code" unicode="&#58916;" d="M976-60H48c-26.4 0-48 21.6-48 47.2V780c0 26.4 21.6 47.2 48 47.2h928c26.4 0 48-21.6 48-47.2v-792.8c0-26.4-21.6-47.2-48-47.2zM96 780c-26.4 0-48-21.6-48-47.2 0-26.4 21.6-47.2 48-47.2s48 21.6 48 47.2S122.4 780 96 780z m144 0c-26.4 0-48-21.6-48-47.2 0-26.4 21.6-47.2 48-47.2s48 21.6 48 47.2-21.6 47.2-48 47.2z m144 0c-26.4 0-48-21.6-48-47.2 0-26.4 21.6-47.2 48-47.2s48 21.6 48 47.2-21.6 47.2-48 47.2z m592-144H48v-648.8h928V636zM356 512c4.8 4.8 12 4.8 16.8 0 4.8-4.8 4.8-12 0-16.8L204.8 328l168-167.2c4.8-4.8 4.8-12 0-16.8s-12-4.8-16.8 0L180 320c-2.4 1.6-4 4.8-4 8s0.8 6.4 3.2 8.8L356 512z m212.8-50.4c3.2 5.6 10.4 8 16 4.8s8-9.6 5.6-16l-136-256.8c-3.2-5.6-10.4-8-16-4.8s-8 9.6-5.6 16l136 256.8z m82.4 50.4c4.8 4.8 12 4.8 16.8 0l176-176c2.4-2.4 3.2-5.6 3.2-8.8 0-3.2-0.8-6.4-3.2-8.8l-176-176c-4.8-4.8-12-4.8-16.8 0-4.8 4.8-4.8 12 0 16.8l168 168-168 168c-4.8 4.8-4.8 12 0 16.8z"  horiz-adv-x="1024" />

    
    <glyph glyph-name="database" unicode="&#58917;" d="M227.556 782.222h113.777v-56.889H227.556z m0-341.333h113.777V384H227.556z m0-341.333h113.777v-56.89H227.556zM853.333 839.111v-170.667H170.667V839.111h682.666M910.223 896H113.777v-284.444h796.444V896z m-56.89-398.222V327.11H170.667V497.778h682.666m56.89 56.889H113.777v-284.445h796.444V554.667z m-56.89-398.223v-170.666H170.667V156.444h682.666m56.89 56.89H113.777v-284.445h796.444V213.333z"  horiz-adv-x="1024" />

    
    <glyph glyph-name="dashboard" unicode="&#58918;" d="M219.429 237.714q0 30.286-21.429 51.715t-51.714 21.428T94.57 289.43t-21.428-51.715T94.57 186t51.715-21.429T198 186t21.429 51.714z m109.714 256q0 30.286-21.429 51.715T256 566.857t-51.714-21.428-21.429-51.715T204.286 442 256 420.571 307.714 442t21.429 51.714z m244.571-274.857l57.715 218.286q3.428 14.857-4.286 27.714t-22 16.857T577.714 478t-17.143-22.571l-57.714-218.286q-34.286-2.857-61.143-24.857t-36-56.286q-11.428-44 11.429-83.429T484 21.714t83.429 11.429T618.286 100q9.143 34.286-3.429 66.857t-41.143 52z m377.143 18.857q0 30.286-21.428 51.715t-51.715 21.428T826 289.43t-21.429-51.715T826 186t51.714-21.429T929.43 186t21.428 51.714zM585.143 603.43q0 30.285-21.429 51.714T512 676.57t-51.714-21.428-21.429-51.714 21.429-51.715T512 530.286t51.714 21.428 21.429 51.715z m256-109.715q0 30.286-21.429 51.715T768 566.857t-51.714-21.428-21.429-51.715T716.286 442 768 420.571 819.714 442t21.429 51.714z m182.857-256q0-149.143-80.571-276-10.858-16.571-30.858-16.571H111.43q-20 0-30.858 16.571Q0 88 0 237.714q0 104 40.571 198.857T149.714 600t163.429 109.143T512 749.714t198.857-40.571T874.286 600t109.143-163.429T1024 237.714z"  horiz-adv-x="1024" />

    
    <glyph glyph-name="dataAllViews" unicode="&#58919;" d="M651.636364 802.909091V709.818182h418.909091V802.909091zM558.545455 733.053673H395.599127a23.309964 23.309964 0 0 0 0 46.619927H558.545455V802.909091A93.239855 93.239855 0 0 0 651.636364 896h418.909091a93.239855 93.239855 0 0 0 93.090909-93.090909V709.818182a93.239855 93.239855 0 0 0-93.090909-93.090909H651.636364A93.239855 93.239855 0 0 0 558.545455 709.818182zM558.545455-34.909091H186.181818a93.239855 93.239855 0 0 0-93.090909 93.090909V697.008873l46.545455-67.025455v-571.950545a46.470982 46.470982 0 0 1 46.545454-46.396509h372.363637v46.545454A93.239855 93.239855 0 0 0 651.636364 151.272727h418.909091a93.239855 93.239855 0 0 0 93.090909-93.090909V-34.909091a93.239855 93.239855 0 0 0-93.090909-93.090909H651.636364A93.239855 93.239855 0 0 0 558.545455-34.909091z m0 395.599127H349.128145a93.165382 93.165382 0 0 0-93.090909 93.090909V652.772073l46.470982-37.608728v-161.3824a46.545455 46.545455 0 0 1 46.619927-46.470981H558.545455V430.545455A93.239855 93.239855 0 0 0 651.636364 523.636364h418.909091a93.239855 93.239855 0 0 0 93.090909-93.090909V337.454545a93.239855 93.239855 0 0 0-93.090909-93.090909H651.636364A93.239855 93.239855 0 0 0 558.545455 337.454545z m93.090909 69.855419V337.454545h418.909091V430.545455z m0-372.363637V-34.909091h418.909091v93.090909zM93.090909 802.909091V709.818182h232.727273V802.909091z m0 93.090909h232.727273a93.239855 93.239855 0 0 0 93.090909-93.090909V709.818182a93.239855 93.239855 0 0 0-93.090909-93.090909H93.090909A93.239855 93.239855 0 0 0 0 709.818182V802.909091A93.239855 93.239855 0 0 0 93.090909 896z"  horiz-adv-x="1163" />

    
    <glyph glyph-name="clipboard" unicode="&#58920;" d="M438.857-54.857h512V310.857H713.143q-22.82 0-38.839 16.018t-16.018 38.84V603.428H438.857v-658.286zM585.143 768V804.571q0 7.461-5.413 12.874t-12.873 5.412H164.571q-7.46 0-12.873-5.412t-5.412-12.874V768q0-7.46 5.412-12.873t12.873-5.413h402.286q7.46 0 12.873 5.413T585.143 768z m146.286-384H902.29L731.43 554.862V384zM1024 310.857v-384q0-22.82-16.018-38.839T969.142-128h-548.57q-22.821 0-38.84 16.018t-16.018 38.84v91.428H54.857q-22.82 0-38.839 16.018T0 73.143v768q0 22.82 16.018 38.839T54.858 896H676.57q22.821 0 38.84-16.018t16.018-38.84v-187.464q11.995-7.46 20.553-16.019l233.18-233.179q16.017-16.018 27.428-43.447t11.41-50.322z"  horiz-adv-x="1024" />

    
    <glyph glyph-name="case_ybaj" unicode="&#58921;" d="M770.614913 425.838611l-278.749744-334.185904-203.440246 174.153217 33.993872 39.746681 163.170582-139.636364 244.755873 293.393258 40.269663-33.470888zM127.869254 113.094995c0-97.797753 72.694586-177.291113 162.124617-177.291113H733.483146c89.430031 0 162.124617 79.493361 162.124617 177.291113V558.6762c0 86.292135-57.005107 158.463739-132.314607 174.153218a474.188355 474.188355 0 0 0 4.706844-60.665986h31.901941V608.359551H224.098059V672.163432h31.901941a468.174055 468.174055 0 0 0 4.706844 60.665986c-75.309499-15.166496-132.314607-87.3381-132.314607-174.153218v-445.581205z m832.065373 445.581205v-445.581205c0-132.837589-101.458631-241.094995-225.928498-241.094995H289.993871C165.524004-128 64.065373-19.742594 64.065373 113.094995V558.6762c0 127.607763 93.613892 232.20429 211.807967 240.04903C292.608784 849.454545 324.510725 896 384.130746 896h255.738508c59.62002 0 91.521961-46.022472 108.257406-96.751788 118.194076-8.367722 211.807967-112.441267 211.807967-240.572012z m-255.738509 113.487232c0 52.298264-15.689479 160.032686-63.803881 160.032686h-256.261491C336.016343 832.196118 320.326864 724.461696 320.326864 672.163432z"  horiz-adv-x="1024" />

    
    <glyph glyph-name="datatable" unicode="&#58922;" d="M56.889 839.111V-71.11H967.11V839.11H56.89z m56.889-227.555h227.555v-170.667H113.778V611.556z m512-170.667H398.222V611.556h227.556v-170.667z m0-56.889v-170.667H398.222V384h227.556z m-512 0h227.555v-170.667H113.778V384z m0-398.222V156.444h227.555v-170.666H113.778z m284.444 0V156.444h227.556v-170.666H398.222z m512 0H682.667V156.444h227.555v-170.666z m0 227.555H682.667V384h227.555v-170.667z m0 227.556H682.667V611.556h227.555v-170.667zM113.778 668.444V782.222h796.444v-113.778H113.778z"  horiz-adv-x="1024" />

    
    <glyph glyph-name="deptment" unicode="&#58923;" d="M905.216 291.328h-122.88l-122.88 211.456c29.696 14.848 49.152 49.152 49.152 83.456V783.36c0 54.272-44.032 98.304-98.304 98.304H413.184c-54.272 0-98.304-44.032-98.304-98.304v-196.608c0-34.304 19.456-64 49.152-83.456l-122.88-211.456H117.76c-54.272 0-98.304-44.032-98.304-98.304v-196.608c0-54.272 44.032-98.304 98.304-98.304h196.608c54.272 0 98.304 44.032 98.304 98.304v64H609.28v-64c0-54.272 44.032-98.304 98.304-98.304h196.608c54.272 0 98.304 44.032 98.304 98.304v196.608c1.024 53.248-43.008 97.792-97.28 97.792z m-492.032-157.696v58.88c0 49.152-39.424 93.696-88.576 98.304l113.152 196.608h142.848l113.152-196.608c-49.152-5.12-88.576-44.032-88.576-98.304v-58.88H413.184z"  horiz-adv-x="1024" />

    
    <glyph glyph-name="dot" unicode="&#58924;" d="M512 384m-512 0a512 512 0 1 1 1024 0 512 512 0 1 1-1024 0Z"  horiz-adv-x="1024" />

    
    <glyph glyph-name="deptStatistics" unicode="&#58925;" d="M911.8208 320.1536H896v128h-352.0512V512h95.2832A128.8192 128.8192 0 0 1 768 640.8192V767.3344A128.8704 128.8704 0 0 1 639.232 896H384.6656A128.8192 128.8192 0 0 1 256 767.3344v-126.4128A128.768 128.768 0 0 1 384.6656 512h95.2832v-64H128v-128h-15.9232A112.2304 112.2304 0 0 1 0 208.1792v-223.7952a112.2304 112.2304 0 0 1 112.0768-112.0768H207.872a112.2304 112.2304 0 0 1 112.0768 112.0768v223.6928a112.2304 112.2304 0 0 1-112.0768 112.0768h-15.872V384h287.9488v-64.1024A101.4784 101.4784 0 0 1 384 218.88v-245.1968a101.5296 101.5296 0 0 1 101.4272-101.376h53.1968a101.5296 101.5296 0 0 1 101.376 101.376v245.0944a101.4784 101.4784 0 0 1-96 101.1712V384h287.9488v-64h-15.872a112.2304 112.2304 0 0 1-112.0768-112.0768v-223.7952a112.2304 112.2304 0 0 1 112.0256-112.128h95.7952A112.2304 112.2304 0 0 1 1024-15.8208v223.8976a112.2304 112.2304 0 0 1-112.1792 112.0768zM319.9488 640.9216V767.4368a64.768 64.768 0 0 0 64.7168 64.6656h254.464a64.768 64.768 0 0 0 64.7168-64.6656v-126.5152a64.768 64.768 0 0 0-64.7168-64.6656h-254.464a64.6656 64.6656 0 0 0-64.7168 64.6656zM256 208.0768v-223.7952a48.1792 48.1792 0 0 0-48.128-48.0768H112.0768a48.1792 48.1792 0 0 0-48.0768 48.0768v223.7952a48.1792 48.1792 0 0 0 48.0768 47.9232H207.872a48.1792 48.1792 0 0 0 48.128-47.9232z m319.9488 10.7008v-245.1968a37.4784 37.4784 0 0 0-37.376-37.376H485.376a37.4784 37.4784 0 0 0-37.4272 37.376v245.1968A37.4784 37.4784 0 0 0 485.376 256h53.1968a37.376 37.376 0 0 0 37.376-37.2224z m384-234.496a48.1792 48.1792 0 0 0-48.0768-48.0768h-95.8464a48.128 48.128 0 0 0-48.0768 48.0768v223.7952a48.128 48.128 0 0 0 48.0768 48.0768h95.7952a48.1792 48.1792 0 0 0 48.0768-48.0768z"  horiz-adv-x="1024" />

    
    <glyph glyph-name="eventManagement" unicode="&#58926;" d="M157.696 792.064V706.56H936.96v-582.144h87.04V792.064H157.696zM513.536 302.08c0-51.2 41.472-93.184 93.184-93.184 51.2 0 93.184 41.472 93.184 93.184 0 51.2-41.472 93.184-93.184 93.184s-93.184-41.984-93.184-93.184zM0 646.656v-667.648h866.304V646.656H0z m113.152-162.304h124.928v-61.44H113.152v61.44zM350.208 112.64H113.152v61.44h237.056v-61.44z m0 156.16H113.152v61.44h237.056v-61.44z m445.44 14.336l-52.736-18.432c-3.072-11.264-7.68-22.016-13.312-32.256l24.064-50.176c-8.192-9.728-16.896-18.944-26.624-26.624l-50.176 24.064c-10.24-5.632-20.992-10.24-32.256-13.312l-18.432-52.736c-12.8-1.024-25.088-1.024-37.888 0l-18.432 52.736c-11.264 3.072-22.016 7.68-32.256 13.312l-50.176-24.064c-9.728 8.192-18.944 16.896-26.624 26.624l24.064 50.176c-5.632 10.24-10.24 20.992-13.312 32.256l-52.736 18.432c-1.024 12.8-1.024 25.088 0 37.888l52.736 18.432c3.072 11.264 7.68 22.016 13.312 32.256L460.8 421.888c8.192 9.728 16.896 18.944 26.624 26.624l50.176-24.064c10.24 5.632 20.992 10.24 32.256 13.312l18.432 52.736c12.8 1.024 25.088 1.024 37.888 0l18.432-52.736c11.264-3.072 22.016-7.68 32.256-13.312l50.176 24.064c9.728-8.192 18.944-16.896 26.624-26.624l-24.064-50.176c5.632-10.24 10.24-20.992 13.312-32.256l52.736-18.432c1.024-12.8 1.024-25.6 0-37.888z"  horiz-adv-x="1024" />

    
    <glyph glyph-name="dataMonitor" unicode="&#58927;" d="M78.808029-41.81554V888.623569A7.439478 7.439478 0 0 1 71.431597 896H7.376431A7.439478 7.439478 0 0 1 0 888.623569v-1001.870706a14.752863 14.752863 0 0 1 14.752863-14.752863h1081.435291a7.439478 7.439478 0 0 1 7.376432 7.376431v64.055166a7.439478 7.439478 0 0 1-7.376432 7.376432H86.18446a7.439478 7.439478 0 0 0-7.376431 7.376431zM379.413373 343.839429H172.36892A14.752863 14.752863 0 0 1 157.616057 329.086566v-285.34811a14.815909 14.815909 0 0 1 14.752863-14.752863h206.91836a14.815909 14.815909 0 0 1 14.752863 14.752863V329.086566a14.62677 14.62677 0 0 1-14.62677 14.752863zM307.981776 107.919714H243.92661a7.439478 7.439478 0 0 0-7.376431 7.376432v142.484915a7.439478 7.439478 0 0 0 7.376431 7.376432h64.055166a7.439478 7.439478 0 0 0 7.250338-7.502524v-142.484916a7.439478 7.439478 0 0 0-7.250338-7.250339z m386.663711 630.464229H487.727127A14.752863 14.752863 0 0 1 472.848171 723.63108v-679.892624a14.815909 14.815909 0 0 1 14.752863-14.752863h206.91836a14.878956 14.878956 0 0 1 14.752863 14.752863V723.63108a14.689817 14.689817 0 0 1-14.62677 14.752863zM623.21389 107.919714H559.158724a7.439478 7.439478 0 0 0-7.376431 7.376432V652.199483a7.439478 7.439478 0 0 0 7.376431 7.376431h64.055166a7.439478 7.439478 0 0 0 7.250339-7.376431v-537.02943a7.439478 7.439478 0 0 0-7.250339-7.250339z m386.789804 393.787957h-206.91836a14.752863 14.752863 0 0 1-15.005048-14.752862v-443.216353a14.815909 14.815909 0 0 1 14.752863-14.752863h207.170545a14.878956 14.878956 0 0 1 14.752863 14.752863v443.216353a14.815909 14.815909 0 0 1-14.752863 14.752862zM938.572097 107.919714h-64.055166a7.439478 7.439478 0 0 0-7.376431 7.376432V415.523211a7.439478 7.439478 0 0 0 7.376431 7.628618h64.055166a7.439478 7.439478 0 0 0 7.124246-7.628618v-300.353158a7.439478 7.439478 0 0 0-7.124246-7.250339z"  horiz-adv-x="1103" />

    
    <glyph glyph-name="documentation" unicode="&#58928;" d="M743.253 751.815H374.5v-734.379h368.753a92.018 92.018 0 0 1 92.16 91.82V660.024a91.99 91.99 0 0 1-92.16 91.79z m-0.398-293.888c0.398-20.48-1.507-26.795-9.756-26.795-3.613-0.597-9.415 1.622-17.863 8.875-12.658 8.932-21.504 16.754-29.156 21.618-6.798 5.888-17.55 5.205-24.292 0-8.874-4.95-21.532-15.872-28.814-21.618-8.988-7.907-15.018-8.875-17.18-8.875-8.619 0-10.838 7.424-10.496 26.795l-0.313 223.602c0 21.163 8.562 24.377 17.266 24.377h103.708c10.553 0 17.294-4.836 17.294-24.377l-0.398-223.602zM190.123 660.025v-550.798a92.046 92.046 0 0 1 92.188-91.819h46.08V751.815h-46.08a92.018 92.018 0 0 1-92.188-91.79z"  horiz-adv-x="1024" />

    
    <glyph glyph-name="commons" unicode="&#58929;" d="M590.604 388.375H414.052c-12.435 0-22.568 8.828-22.568 21.263s10.056 21.263 22.568 21.263h176.552c12.435 0 22.491-8.827 22.491-21.263s-10.056-21.263-22.491-21.263z m57.34 92.268H346.349c-12.435 0-22.49 8.827-22.49 21.263s10.055 21.263 22.49 21.263h301.52c12.435 0 22.491-8.828 22.491-21.263 0.077-12.436-9.979-21.263-22.414-21.263z m159.128-225.065h-1.612c-16.965 0-30.321 13.74-30.321 30.32 0 4.376 1.842 9.75 2.533 11.592 5.066 11.59 1.228 25.638-9.058 33.084l-39.379 21.877-1.228 0.69c-3.454 1.613-7.215 2.15-10.977 2.15-7.83 0-15.66-3.07-20.956-8.827-4.99-4.99-17.194-14.432-24.717-14.432s-19.728 9.75-24.717 14.662c-5.297 5.603-13.126 8.827-20.956 8.827-3.761 0-7.523-0.69-10.977-2.149l-40.99-22.184-1.229-0.69c-10.286-7.216-14.431-21.648-9.365-32.855 0.691-1.842 2.84-7.215 2.84-11.59 0-16.812-13.74-30.322-30.32-30.322h-1.612c-10.977 0-19.728-8.443-22.185-21.646-0.307-1.843-3.454-18.423-3.454-31.626 0-13.74 3.07-30.935 3.454-31.626 2.534-13.126 11.208-21.647 22.185-21.647h1.612c16.964 0 30.32-13.74 30.32-30.32 0-4.376-1.842-9.75-2.84-11.592-4.99-11.59-1.228-25.638 9.058-33.084l38.765-21.647 1.228-0.69c3.454-1.613 7.216-2.15 10.977-2.15 8.137 0 15.89 3.454 21.263 9.058 5.987 6.525 18.423 15.352 24.947 15.352 7.83 0 20.265-10.286 25.332-15.659 5.296-5.604 13.126-9.058 21.263-9.058 3.76 0 7.522 0.691 10.977 2.15l40.07 22.184 1.227 0.69c10.286 7.216 14.431 21.647 9.365 32.854-0.92 2.15-2.84 7.523-2.84 11.591 0 16.811 13.74 30.321 30.32 30.321h1.613c10.977 0 19.728 8.444 22.184 21.647 0 0.307 3.454 17.502 3.454 31.626 0 13.74-3.07 30.935-3.454 31.626-2.073 12.665-10.9 21.493-21.8 21.493z m-65.324-155.135l-24.027-13.127c-2.533 2.533-5.987 5.604-10.286 8.444-12.82 9.749-25.638 14.431-37.536 14.431s-24.41-4.682-37.23-14.047c-3.991-3.07-7.522-5.91-9.979-8.444l-22.798 12.82c1.612 5.066 2.84 11.207 2.84 17.885 0 32.854-24.026 60.718-55.959 65.938-0.69 5.066-1.612 12.128-1.612 17.885 0 5.604 0.921 12.82 1.612 17.886 31.933 5.296 55.96 33.084 55.96 65.938 0 6.525-1.229 12.82-2.84 17.886l24.947 13.74c2.533-2.15 5.987-5.297 10.286-8.137 12.512-9.058 24.947-13.51 36.615-13.51 11.59 0 23.796 4.376 36.308 13.51 3.992 2.84 7.523 5.604 9.98 8.137l23.795-13.126c-1.612-4.99-2.84-11.207-2.84-17.886 0-32.854 24.026-60.641 55.96-65.938 0.69-4.99 1.611-12.128 1.611-17.885 0-5.604-0.92-12.82-1.612-17.886-31.933-5.296-55.959-33.084-55.959-65.938-0.077-6.371 0.844-12.589 2.764-18.576zM483.598 92.306a14.354 14.354 0 1 1 28.709 0 14.354 14.354 0 1 1-28.709 0zM774.448 390.985a14.2 14.2 0 1 1 28.402 0 14.2 14.2 0 1 1-28.402 0zM675.656 264.712c-33.929 0-62.024-27.787-62.024-62.023 0-33.929 27.788-62.023 62.024-62.023 33.928 0 62.023 27.787 62.023 62.023 0 34.236-27.634 62.023-62.023 62.023z m25.561-61.716c0-14.047-11.514-25.562-25.561-25.562-14.048 0-25.562 11.515-25.562 25.562s11.514 25.562 25.562 25.562c14.047 0 25.561-11.515 25.561-25.562zM497.339 660.726c150.299 0 273.117-120.286 277.109-269.664h28.402c-3.992 165.345-139.246 298.065-305.511 298.065-168.8 0-305.665-136.789-305.665-305.588 0-59.797 17.425-115.449 47.131-162.504l-35.08-130.802 130.725 35.004c47.209-29.784 102.86-47.286 162.889-47.286h0.614V106.43h-0.691c-52.121 0-103.245 14.815-147.69 42.91l-10.516 6.678-95.184-25.562 25.561 95.185-6.601 10.516c-27.941 44.292-42.756 95.261-42.756 147.382 0 152.833 124.353 277.187 277.263 277.187z"  horiz-adv-x="1024" />

    
    <glyph glyph-name="dot_" unicode="&#58930;" d="M512 384m-512 0a512 512 0 1 1 1024 0 512 512 0 1 1-1024 0Z"  horiz-adv-x="1024" />

    
    <glyph glyph-name="excel" unicode="&#58931;" d="M625.664 763.392v-67.072h309.76v-43.008h-309.76v-69.632h309.76v-43.008h-309.76v-68.608h309.76v-43.008h-309.76v-68.608h309.76v-43.008h-309.76v-68.608h309.76v-43.008h-309.76v-68.096h309.76v-43.008h-309.76v-89.088H1024v757.76H625.664zM0-18.944L577.024-128V896L0 786.944M229.376 235.52h-89.6l118.272 187.904-112.64 180.736h92.16l65.536-119.808 67.584 119.808h89.088l-112.64-177.664L466.944 235.52h-93.696l-70.144 125.44-73.728-125.44z"  horiz-adv-x="1024" />

    
    <glyph glyph-name="drag" unicode="&#58932;" d="M574.958 628.984h-63.454 204.649L511.213 832.345 307.85 628.984h141.191V439.32H258.688v-125.917H449.04V123.05h125.917V313.404h188.875V439.321H574.958V628.984z m-63.704-693.33l189.62 187.396H323.126l188.129-187.395zM71.292 377.109l187.395-189.62v377.75L71.292 377.108z m692.54 188.13v-377.75L952.708 377.11 763.833 565.238z"  horiz-adv-x="1024" />

    
    <glyph glyph-name="form" unicode="&#58933;" d="M746.028 705.916q-11.242 0-18.906 7.665t-12.775 17.884-7.664 20.95-2.555 17.884V896h2.044q9.197 0 17.373-2.044t19.928-9.708 28.615-21.462 42.411-36.279q27.593-24.527 43.944-41.39t25.038-28.614 10.73-19.928 2.044-14.308v-16.35H746.028z m317.828-481.341q3.066-8.176 4.088-20.44t-10.22-23.504q-5.11-5.11-9.197-9.709t-7.154-7.665q-4.088-4.087-7.153-6.131l-86.867 85.844q6.132 5.11 13.797 12.264t12.774 11.241q12.264 11.242 26.571 9.709T1024 269.54q10.22-5.11 21.972-17.884t17.884-27.082z m-360.75-95.042q22.483 0 37.812 12.263l-198.26-206.435h-282.06q-19.416 0-42.41 11.242t-42.923 29.637-33.213 42.41-13.286 49.566V764.168q0 21.46 9.709 44.966t26.57 42.41 38.324 31.682T248.335 896h391.41v-127.745q0-19.417 6.131-41.9t18.906-41.389 33.214-31.68 49.054-12.775h149.205v-338.267L756.248 157.126q11.241 16.351 11.241 35.768 0 26.571-18.906 45.477t-45.477 18.906H319.872q-26.57 0-44.966-18.906t-18.395-45.477 18.395-44.966 44.966-18.395h383.234zM319.872 512.766q-26.57 0-44.966-18.906t-18.395-45.477 18.395-44.966 44.966-18.395h383.234q26.57 0 45.477 18.395t18.906 44.966-18.906 45.477-45.477 18.906H319.872z m385.278-512l13.285 13.286 25.549 25.549q15.33 15.33 33.725 34.235t36.79 37.302q43.944 43.944 99.13 98.108l85.844-85.845-99.13-99.13-36.79-36.79-33.725-33.725q-14.307-14.307-24.016-24.526t-10.73-11.242q-5.11-4.088-11.242-8.687t-12.263-7.664-18.906-7.665-26.06-8.687-25.55-7.153-18.394-4.088q-12.264-2.044-16.352 3.066t-2.044 17.373q1.022 6.132 4.088 18.395t7.154 25.038 7.665 24.016 5.62 15.33q6.132 13.285 16.352 23.504z"  horiz-adv-x="1069" />

    
    <glyph glyph-name="gdcx" unicode="&#58934;" d="M872 804H152c-33.09 0-60-26.91-60-60v-720c0-33.09 26.91-60 60-60h555a30 30 0 1 1 0 60H152V744h720v-555a30 30 0 1 1 60 0V744c0 33.09-26.91 60-60 60zM774.26 164.16A193.83 193.83 0 0 1 812 279c0 107.52-87.48 195-195 195s-195-87.48-195-195 87.48-195 195-195a193.83 193.83 0 0 1 114.84 37.74l103.95-103.95a29.91 29.91 0 0 1 42.42 0 29.97 29.97 0 0 1 0 42.42L774.26 164.16zM482 279c0 74.43 60.57 135 135 135s135-60.57 135-135-60.57-135-135-135-135 60.57-135 135z m300 337.5a30 30 0 0 1-30 30H272a30 30 0 0 1 0-60h480a30 30 0 0 1 30 30zM272 467.76a30 30 0 0 1 0-60h90a30 30 0 0 1 0 60h-90z"  horiz-adv-x="1024" />

    
    <glyph glyph-name="close" unicode="&#58935;" d="M226.133 98.133C68.267 256 68.267 512 226.133 669.867s416 157.866 573.867 0 157.867-416 0-573.867-416-155.733-573.867 2.133z m531.2 531.2c-134.4 134.4-354.133 134.4-488.533 0S134.4 275.2 268.8 140.8s354.133-134.4 488.533 0 134.4 352 0 488.533zM616.533 236.8L364.8 488.533c-10.667 10.667-10.667 29.867 0 42.667 10.667 10.667 29.867 10.667 42.667 0L659.2 279.467c10.667-10.667 10.667-29.867 0-42.667-12.8-10.667-29.867-10.667-42.667 0zM364.8 236.8c-10.667 10.667-10.667 29.867 0 42.667L616.533 531.2c10.667 10.667 29.867 10.667 42.667 0 10.667-10.667 10.667-29.867 0-42.667L407.467 236.8c-12.8-10.667-29.867-10.667-42.667 0z"  horiz-adv-x="1024" />

    
    <glyph glyph-name="factor" unicode="&#58936;" d="M566.056 648.056H272.668v-58.683h293.388v58.683z m0-176.041H272.668v-58.676h293.388v58.676z m352.066-469.427v528.11c0 32.412-26.259 58.675-58.676 58.675H683.423V765.405c0 32.41-26.288 58.682-58.691 58.682h-410.74c-32.42 0-58.673-26.27-58.673-58.682v-762.818H96.627v-58.675h880.168v58.675h-58.673v0.001z m-293.391 0h-410.74V765.405h410.74v-762.817z m234.716 0H683.423V530.69h176.024v-528.102zM566.056 295.992H272.668v-58.676h293.388v58.676z"  horiz-adv-x="1024" />

    
    <glyph glyph-name="datacolletion" unicode="&#58937;" d="M568.889 327.111h341.333v-341.333H568.89V327.11z m56.889-284.444h227.555V270.222H625.778v-227.555z m-512 284.444H455.11v-341.333H113.778V327.11z m56.889-284.444h227.555V270.222H170.667v-227.555z m398.222 739.555h341.333V440.89H568.89V782.222z m56.889-56.889v-227.555h227.555V725.333H625.778z m-512 56.89H455.11v-341.334H113.778V782.222z m56.889-56.89v-227.555h227.555V725.333H170.667z"  horiz-adv-x="1024" />

    
    <glyph glyph-name="gather" unicode="&#58938;" d="M913.335 849.455H529.574c-35.412 0-64.119-28.707-64.119-64.119v-364.31h-93.091v-74.05h93.091v-364.31c0-35.412 28.707-64.119 64.119-64.119h383.762c35.412 0 64.119 28.707 64.119 64.119v802.67c0 35.411-28.708 64.119-64.12 64.119zM529.574-34.909c-9.69 0-17.574 7.884-17.574 17.574v802.67c0 9.69 7.883 17.574 17.574 17.574h383.762c9.69 0 17.574-7.884 17.574-17.574v-802.67c0-9.69-7.883-17.574-17.574-17.574H529.574zM698.182 709.818h-93.091v-93.091h93.091v93.091z m139.636 0h-93.091v-93.091h93.091v93.091zM698.182 570.182h-93.091v-93.091h93.091v93.091z m139.636 0h-93.091v-93.091h93.091v93.091zM698.182 430.546h-93.091v-93.091h93.091v93.091zM168.148 802.909c9.944 0 18.033-8.09 18.033-18.033v-103.569c0-9.944-8.09-18.033-18.033-18.033h-57.024c-9.944 0-18.033 8.09-18.033 18.033v103.57c0 9.944 8.09 18.033 18.033 18.033h57.024m0-325.819c9.944 0 18.033-8.09 18.033-18.033v-150.115c0-9.944-8.09-18.033-18.033-18.033h-57.024c-9.944 0-18.033 8.09-18.033 18.033V459.057c0 9.944 8.09 18.033 18.033 18.033h57.024m0-372.363c9.944 0 18.033-8.09 18.033-18.033v-103.569c0-9.944-8.09-18.033-18.033-18.033h-57.024c-9.944 0-18.033 8.09-18.033 18.033v103.57c0 9.944 8.09 18.033 18.033 18.033h57.024m0 744.727h-57.024c-35.666 0-64.579-28.913-64.579-64.579v-103.57c0-35.666 28.913-64.579 64.579-64.579h57.024c35.666 0 64.579 28.913 64.579 64.579v28.512h93.091v-288.793h-93.091v38.033c0 35.666-28.913 64.579-64.579 64.579h-57.024c-35.666 0-64.579-28.913-64.579-64.579v-150.115c0-35.666 28.913-64.579 64.579-64.579h57.024c35.666 0 64.579 28.913 64.579 64.579v38.033h93.091v-288.793h-93.091v28.512c0 35.666-28.913 64.579-64.579 64.579h-57.024c-35.666 0-64.579-28.913-64.579-64.579v-103.57c0-35.666 28.913-64.579 64.579-64.579h57.024c35.666 0 64.579 28.913 64.579 64.579v28.512h93.091c25.706 0 46.545 20.839 46.545 46.545V709.818c0 25.706-20.839 46.545-46.545 46.545h-93.091v28.512c0 35.667-28.913 64.58-64.579 64.58z m669.67-418.909h-93.091v-93.091h93.091v93.091zM698.182 290.909h-93.091v-93.091h93.091v93.091z m139.636 0h-93.091v-93.091h93.091v93.091zM698.182 151.273h-93.091v-93.091h93.091v93.091z m139.636 0h-93.091v-93.091h93.091v93.091z"  horiz-adv-x="1024" />

    
    <glyph glyph-name="eye" unicode="&#58939;" d="M941.677 504.29c9.338 14.006 6.225 32.681-6.225 43.575-14.006 10.894-32.681 7.781-43.575-6.225-1.557-1.556-174.3-205.426-379.728-205.426-199.2 0-379.727 205.426-381.283 206.982-10.895 12.45-31.125 14.006-43.576 3.113-12.45-10.894-14.006-31.125-3.113-43.576 3.113-4.668 40.463-46.687 99.6-93.375l-79.37-82.482c-12.45-12.45-10.893-32.681 1.557-43.575 3.113-6.225 10.894-9.338 18.676-9.338 7.78 0 15.562 3.113 21.787 9.338l85.594 88.706c40.463-28.013 88.707-54.47 141.62-73.144l-32.682-110.495c-4.668-17.118 4.67-34.237 21.788-38.906h9.337c14.006 0 26.457 9.338 29.569 23.344l32.681 110.495c24.9-4.669 51.357-7.782 77.813-7.782s52.913 3.113 77.814 7.782l32.68-108.939c3.114-14.006 17.12-23.343 29.57-23.343 3.113 0 6.225 0 7.782 1.556 17.118 4.67 26.456 21.787 21.788 38.906L649.099 300.42c52.914 18.676 101.157 45.132 141.62 73.144l84.038-87.15c6.225-6.225 14.006-9.338 21.787-9.338 7.781 0 15.563 3.113 21.787 9.337 12.45 12.451 12.45 31.125 1.557 43.576l-79.37 82.481c63.808 46.689 101.16 91.82 101.16 91.82z"  horiz-adv-x="1024" />

    
    <glyph glyph-name="gps_jsy" unicode="&#58940;" d="M511.95-44.433c-238.82 0-432.357 193.593-432.357 432.355 0 238.82 193.538 432.36 432.358 432.36 238.766 0 432.355-193.54 432.355-432.36 0-238.762-193.593-432.355-432.355-432.355zM851.345 525.67c-16.504 1.642-41.192 19.32-62.264 46.499-24.976 32.317-35.934 65.99-26.614 79.61-65.708 60.507-153.618 97.796-250.57 97.796-95.766 0-182.551-36.389-247.977-95.368 12.432-11.758 1.749-47.744-24.799-82.04-23.003-29.775-50.46-48.251-66.67-46.552-17.745-42.432-27.687-88.873-27.687-137.635 0-199.725 164.351-361.476 367.188-361.476 202.714 0 367.18 161.75 367.18 361.476-0.048 48.76-9.933 95.205-27.787 137.69zM739.137 311.874c-109.102 0-151.305-112.206-151.305-112.206l0.9-141.135-73.897-1.413v-0.225l-7.405 0.11-7.29-0.11v0.225l-75.424 1.413 0.737 141.135s-34.578 112.206-143.62 112.206c-68.193 0-95.265 0.57-95.265 0.57s-19.434 31.633-16.437 102.77c157.464 6.668 124.467 108.932 329.952 113.788v0.452c2.542 0 4.747-0.226 7.343-0.226 2.546 0 4.693 0.226 7.346 0.226v-0.452c205.77-4.803 178.485-107.12 336.003-113.787 3.05-71.133-16.499-102.77-16.499-102.77s-26.95-0.57-95.139-0.57zM509.802 497.475c-73.96 0-133.844-51.469-133.844-114.975 0-63.448 59.942-114.974 133.844-114.974S643.709 319.053 643.709 382.5c-0.001 63.506-59.948 114.975-133.907 114.975z m-0.053-200.175c-54.803 0-99.218 38.138-99.218 85.2 0 47.065 44.415 85.259 99.218 85.259 54.804 0 99.213-38.194 99.213-85.258-0.004-47.064-44.41-85.2-99.213-85.2z m0 0"  horiz-adv-x="1024" />

    
    <glyph glyph-name="gdfb" unicode="&#58941;" d="M511.872 125.61h-0.128a31.908 31.908 0 0 0-24.128 11.115c-9.216 10.731-19.285 22.208-29.91 34.326C363.009 278.997 235.2 419.712 235.2 552.107c0 153.621 124.97 278.592 278.592 278.592s278.57-124.971 278.57-278.592c0-135.062-134.549-277.782-231.38-387.2-8.79-9.92-17.174-19.414-25.003-28.374a32 32 0 0 0-24.107-10.922z m1.92 641.089c-118.315 0-214.592-96.256-214.592-214.592 0-146.283 151.957-271.574 214.827-349.291 62.336 81.259 214.314 202.325 214.314 349.29 0.022 118.337-96.234 214.593-214.549 214.593zM513.792 446.421c-67.05 0-121.579 54.55-121.579 121.6s54.55 121.6 121.579 121.6c67.072 0 121.6-54.549 121.6-121.6s-54.528-121.6-121.6-121.6z m0 179.2c-31.744 0-57.579-25.834-57.579-57.6s25.835-57.578 57.579-57.578c31.765 0 57.6 25.813 57.6 57.578s-25.835 57.6-57.6 57.6z m416.747-670.037H93.46c-11.029 0-21.269 5.696-27.114 15.019a31.99 31.99 0 0 0-1.664 30.954l123.52 255.638a32.004 32.004 0 0 0 28.8 18.026h71.786c17.664 0 32-14.336 32-32 0-17.685-14.336-32-32-32h-51.776l-92.437-191.637h736.96l-83.627 191.659H735.7c-17.664 0-32 14.314-32 32 0 17.664 14.336 32 32 32h83.115c12.693 0 24.192-7.531 29.29-19.115L959.83 0.469a31.966 31.966 0 0 0-2.496-30.357c-5.888-9.067-15.978-14.528-26.794-14.528z"  horiz-adv-x="1024" />

    
    <glyph glyph-name="gps_sswz" unicode="&#58942;" d="M512 530.286c-80.786 0-146.286-65.5-146.286-146.286S431.214 237.714 512 237.714 658.286 303.214 658.286 384 592.786 530.286 512 530.286z m0-219.429c-40.322 0-73.143 32.821-73.143 73.143s32.821 73.143 73.143 73.143 73.143-32.821 73.143-73.143-32.821-73.143-73.143-73.143zM1024 420.571h-75C931.391 633.68 761.678 803.392 548.57 821V896H475.43v-75C262.358 803.391 92.643 633.678 75 420.57H0v-73.142h75C92.644 134.32 262.359-35.392 475.43-53V-128h73.142v75C761.68-35.391 931.392 134.322 949 347.43H1024V420.57zM548.571 20.144v71.285H475.43v-71.285c-172.5 17.214-310.071 154.784-327.285 327.285h71.285V420.57h-71.285c17.214 172.5 154.784 310.071 327.285 327.285v-71.285h73.142v71.285c172.5-17.214 310.071-154.784 327.285-327.285h-71.285v-73.142h71.285c-17.214-172.5-154.784-310.071-327.285-327.285z"  horiz-adv-x="1024" />

    
    <glyph glyph-name="icon" unicode="&#58943;" d="M871.424 834.56q18.432 0 34.816-6.656t28.672-18.944 19.456-28.672 7.168-35.84v-720.896q0-38.912-25.088-64.512t-62.976-25.6h-721.92q-40.96 0-66.048 26.624t-25.088 66.56V745.472q0 35.84 24.576 62.464t65.536 26.624h720.896z m-237.568-768q18.432 0 26.624 8.704t8.192 23.04q0 13.312-8.192 22.528t-26.624 9.216h-62.464q1.024 2.048 1.024 6.144V644.096h63.488q18.432 0 25.6 9.216t7.168 22.528-7.168 22.528-25.6 9.216H386.048q-18.432 0-25.6-9.216t-7.168-22.528 7.168-22.528 25.6-9.216h57.344v-507.904q0-2.048 0.512-3.072t0.512-3.072h-56.32q-18.432 0-26.624-9.216t-8.192-22.528q0-14.336 8.192-23.04t26.624-8.704h245.76z"  horiz-adv-x="1024" />

    
    <glyph glyph-name="email" unicode="&#58944;" d="M513 312.2l448.5 448.5c-11.6 4.7-24.3 7.3-37.5 7.3H100c-12.7 0-24.9-2.4-36.1-6.7L513 312.2zM513 221.7L14.6 720.1C5.3 704.9 0 687.1 0 668v-568c0-55.2 44.8-100 100-100h824c55.2 0 100 44.8 100 100V668c0 18.5-5.1 35.9-13.9 50.8L513 221.7z"  horiz-adv-x="1024" />

    
    <glyph glyph-name="gj" unicode="&#58945;" d="M782.4-14.9c54 0 98.8 41.4 98.8 93.8s-44.8 93.8-98.8 93.8H241.2c-20.3 0-35.7 14.3-35.7 30.7 0 16.3 15.4 30.7 35.7 30.7h112.1c17.4 0 31.5 14.1 31.5 31.5-0.4 17.8-14.5 32-31.5 31.6H241.2c-54 0-98.8-41.4-98.8-93.8s44.8-93.8 98.8-93.8h541.1c20.3 0 35.8-14.3 35.8-30.7 0-16.3-15.4-30.7-35.8-30.7H330.9c-17 0.4-31.1-13.7-31.5-31.5 0-17.4 14.1-31.6 31.5-31.6h451.5zM541.5 783.9c-114.3 0.3-206.9-92.3-207.2-206.6 0-84.8 114.6-243.5 173.6-319.3 16.5-18.6 44.9-20.3 63.5-3.9l3.9 3.9c58.9 75.8 173.6 234.1 173.6 319.3-0.4 114.3-93.1 206.7-207.4 206.6z m0-323.3c-30.8 0-60.3 12.2-82.1 34-21.8 21.8-34 51.3-34 82.1 0 30.8 12.2 60.3 34 82 21.8 21.7 51.3 33.9 82.1 33.8 63.2-1.1 113.9-52.7 113.9-116 0-63.2-50.7-114.8-113.9-115.9z m0 0"  horiz-adv-x="1024" />

    
    <glyph glyph-name="homePage" unicode="&#58946;" d="M98.033 415.79a32 32 0 0 0-18.32 58.26l414.034 288.426a32 32 0 0 0 37.504-0.666L915.39 473.385a32 32 0 1 0-38.43-51.18L511.334 696.73 116.296 421.535a31.836 31.836 0 0 0-18.263-5.745z m733.21-447.432H608.516a32 32 0 0 0-32 32V224.036h-128.4v-223.678a32 32 0 0 0-32-32H188.59a32 32 0 0 0-32 32V382.833a32 32 0 1 0 64 0v-350.475h163.528V256.036a32 32 0 0 0 32 32h192.4a32 32 0 0 0 32-32v-223.678h158.724V382.833a32 32 0 1 0 64 0v-382.475a32 32 0 0 0-32-32z"  horiz-adv-x="1024" />

    
    <glyph glyph-name="gps_ljsz" unicode="&#58947;" d="M566.166 622.25c0 97.202-78.798 176-176 176s-176-78.798-176-176c0-24.301 4.925-47.451 13.831-68.507a175.834 175.834 0 0 1 20.79-36.329h-0.005l129.434-190.793 0.026 0.006c2.051-4.102 6.597-6.961 11.889-6.961 5.085 0 9.482 2.641 11.638 6.488l0.032-0.01 129.827 191.38h-0.006c21.702 29.265 34.544 65.495 34.544 104.726z m-176-66.5c-36.727 0-66.5 29.773-66.5 66.5s29.773 66.5 66.5 66.5 66.5-29.773 66.5-66.5-29.773-66.5-66.5-66.5z m102.926-555.047H245.468c-2.266 0-4.542 0.157-6.799 0.47-28.655 2.505-55.201 15.417-74.937 36.497-20.299 21.681-31.478 49.983-31.478 79.696 0 29.495 11.038 57.646 31.082 79.269 19.221 20.734 45.054 33.691 73.022 36.696 3 0.561 6.048 0.843 9.11 0.843h233.465v-0.021h354.823l3.799 0.309c20.277 1.646 36.16 18.897 36.16 39.274 0 20.595-16.068 37.861-36.581 39.309l-1.765 0.124H587.593v80h250.263c2.299 0 4.605-0.161 6.892-0.479 29.346-2.558 56.531-15.778 76.743-37.365 20.78-22.196 32.225-51.171 32.225-81.589 0-30.195-11.3-59.016-31.819-81.15-19.69-21.241-46.159-34.511-74.814-37.575a50.088 50.088 0 0 0-9.226-0.857H466.093v0.021H249.489l-3.619-0.294c-18.851-1.529-33.617-17.568-33.617-36.514 0-19.147 14.938-35.2 34.009-36.547l1.652-0.116h245.177v-80.001z"  horiz-adv-x="1024" />

    
    <glyph glyph-name="example" unicode="&#58948;" d="M770.56 435.2h250.88C998.4 675.84 803.84 870.4 563.2 893.44v-250.88c104.96-20.48 186.88-102.4 207.36-207.36z m0 0M460.8 642.56V893.44C220.16 870.4 25.6 675.84 2.56 435.2h250.88c20.48 104.96 102.4 186.88 207.36 207.36z m0 0M563.2 125.44v-250.88c243.2 23.04 435.2 217.6 460.8 460.8H773.12C750.08 227.84 668.16 145.92 563.2 125.44z m0 0M253.44 332.8H2.56c23.04-243.2 217.6-435.2 460.8-460.8V122.88C355.84 145.92 273.92 227.84 253.44 332.8z m0 0"  horiz-adv-x="1024" />

    
    <glyph glyph-name="delete" unicode="&#58949;" d="M989.867 657.067a102.4 102.4 0 0 1-102.4 102.4H779.605V793.6A102.4 102.4 0 0 1 677.205 896H335.872a102.4 102.4 0 0 1-102.4-102.4v-34.133h-96.939A102.4 102.4 0 0 1 102.4 560.81v-552.278A136.533 136.533 0 0 1 238.933-128h546.134A136.533 136.533 0 0 1 921.6 8.533V560.811a102.4 102.4 0 0 1 68.267 96.256zM301.739 793.6a34.133 34.133 0 0 0 34.133 34.133h341.333A34.133 34.133 0 0 0 711.34 793.6v-34.133h-409.6z m551.594-785.067a68.267 68.267 0 0 0-68.266-68.266H238.933a68.267 68.267 0 0 0-68.266 68.266V554.667h682.666z m34.134 614.4H136.533a34.133 34.133 0 0 0 0 68.267h750.934a34.133 34.133 0 0 0 0-68.267zM341.333 59.733a34.133 34.133 0 0 1 34.134 34.134v307.2a34.133 34.133 0 0 1-68.267 0v-307.2a34.133 34.133 0 0 1 34.133-34.134z m170.667 0a34.133 34.133 0 0 1 34.133 34.134v307.2a34.133 34.133 0 0 1-68.266 0v-307.2A34.133 34.133 0 0 1 512 59.733z m170.667 0a34.133 34.133 0 0 1 34.133 34.134v307.2a34.133 34.133 0 0 1-68.267 0v-307.2a34.133 34.133 0 0 1 34.134-34.134z"  horiz-adv-x="1024" />

    
    <glyph glyph-name="gps_dzwl" unicode="&#58950;" d="M48.253 420.607h73.214v-36.106h44.13V453.58h-45.133c31.467 163.479 160.47 290.601 324.45 319.561v-40.117h70.708v44.38h-37.36V850.617h37.36V896h-73.967v-48.768C239.688 815.64 80.597 658.68 46.372 457.09H2.87v-72.588h45.383v36.106z m503.224 430.01v-73.09h-35.855v-44.504h69.077V773.14c163.98-28.96 293.109-156.082 324.702-319.561h-45.258V384.5h44.004v36.106h73.214v-36.106h45.383v72.713h-43.502C949.017 658.554 789.925 815.64 587.959 847.107V896h-72.337v-45.383h35.855z m430.01-466.116v-37.108h-73.215V384.5h-44.13v-70.707h47.014c-27.33-168.619-158.34-301.508-326.582-331.22V34.35h-68.952v-43.879h35.855v-73.089h-35.855V-128h72.337v36.733c206.354 32.219 367.451 195.322 397.038 402.053h41.747V384.5h-45.257zM478.262-82.617v73.09h37.36V34.35h-70.707v-51.777C276.797 12.41 145.788 145.3 118.458 313.794h47.013v70.707h-44.13v-37.108H48.128V384.5H2.87v-73.59h41.747c29.587-206.856 190.684-370.084 397.038-402.178V-128h73.967v45.383h-37.36z m193.442 465.865c0-85.5-69.328-154.829-154.828-154.829h-1.254v-72.086a227.331 227.331 0 0 1 112.956 30.464c70.456 40.62 113.833 115.714 113.833 197.078v0.501h-70.707v-1.128zM362.047 383.248V384.5h-74.719V384c0-81.238 43.377-156.458 113.834-197.077 35.478-20.435 74.97-30.59 114.585-30.465v72.087c-84.999 0.626-153.7 69.704-153.7 154.703z m-74.719 1.253h74.719c0.627 84.498 69.077 152.949 153.575 153.575v73.466h-0.752c-125.493 0-227.291-101.548-227.542-227.04z m229.548 153.575c85.124 0 154.201-68.7 154.828-153.575h70.707c-0.25 125.242-101.673 226.665-226.79 227.04v-73.465h1.255z"  horiz-adv-x="1045" />

    
    <glyph glyph-name="jbxx" unicode="&#58951;" d="M785.023 773.328h-51.33v0.191c0 30.716-24.931 55.62-55.62 55.62h-333.45c-30.744 0-55.621-24.904-55.621-55.62v-0.19H239.03c-48.722 0-88.428-35.85-88.428-79.927v-441.73h-0.055v-232.884c0-44.078 39.706-79.926 88.483-79.926h545.935c48.722 0 88.483 35.848 88.483 79.926V693.401c0 44.079-39.65 79.927-88.426 79.927z m-440.4 0.19h333.449v-55.62h-333.45v55.62z m473.206-521.847v-232.883c0-13.198-15.1-24.333-32.862-24.333H239.032c-17.816 0-32.862 11.135-32.862 24.333v219.25h0.054V693.4c0 13.198 15.046 24.334 32.808 24.334h49.97c0.11-30.636 24.931-55.457 55.621-55.457h333.45c30.688 0 55.62 24.904 55.62 55.62v-0.162h51.33c17.815 0 32.807-11.136 32.807-24.334v-441.73zM316.54 551.037c-15.371 0-27.81-12.438-27.81-27.81s12.438-27.81 27.81-27.81 27.81 12.438 27.81 27.81-12.438 27.81-27.81 27.81z m389.342 0H427.781c-15.37 0-27.81-12.438-27.81-27.81s12.438-27.81 27.81-27.81h278.102c15.371 0 27.81 12.438 27.81 27.81s-12.439 27.81-27.81 27.81zM316.54 384.177c-15.371 0-27.81-12.438-27.81-27.81s12.438-27.81 27.81-27.81 27.81 12.438 27.81 27.81-12.438 27.81-27.81 27.81z m389.342 0H427.781c-15.37 0-27.81-12.438-27.81-27.81s12.438-27.81 27.81-27.81h278.102c15.371 0 27.81 12.438 27.81 27.81s-12.439 27.81-27.81 27.81zM316.541 217.316c-15.371 0-27.81-12.439-27.81-27.81s12.438-27.811 27.81-27.811 27.81 12.438 27.81 27.81-12.438 27.81-27.81 27.81z m389.342 0H427.781c-15.37 0-27.81-12.439-27.81-27.81s12.438-27.811 27.81-27.811h278.102c15.371 0 27.81 12.438 27.81 27.81s-12.439 27.81-27.81 27.81z"  horiz-adv-x="1024" />

    
    <glyph glyph-name="indicationManage" unicode="&#58952;" d="M163.867715 267.410565A38.615665 38.615665 0 0 0 122.701959 309.304918V851.017122A44.080146 44.080146 0 0 0 163.867715 892.182878a38.979964 38.979964 0 0 0 41.165756-41.165756V316.590893a45.901639 45.901639 0 0 0-41.165756-49.180328z m0-395.264117a38.979964 38.979964 0 0 0-41.165756 41.165756v164.663024a38.979964 38.979964 0 0 0 41.165756 41.165756 38.979964 38.979964 0 0 0 41.165756-41.165756v-164.298725A38.979964 38.979964 0 0 0 163.867715-127.853552z m692.167578 773.041894a38.979964 38.979964 0 0 0-41.165756 41.165756V851.017122a41.165756 41.165756 0 1 0 82.331512 0v-164.298725a38.979964 38.979964 0 0 0-42.622951-41.165756z m0-115.118397a38.979964 38.979964 0 0 1-41.165756-41.165756v-575.591985a41.165756 41.165756 0 0 1 82.331512 0V489.268488a44.080146 44.080146 0 0 1-42.622951 41.165756zM163.867715 45.188342a131.51184 131.51184 0 0 0 0 263.02368 131.51184 131.51184 0 1 0 0-263.02368z m0 182.149363a49.544627 49.544627 0 0 1 0-98.724955A53.187614 53.187614 0 0 1 214.505238 176.700182a53.187614 53.187614 0 0 1-50.637523 49.544627z m345.355192-24.772313a131.876138 131.876138 0 1 0 131.511839 131.511839A129.690346 129.690346 0 0 0 509.222907 200.015301z m0 182.149362a53.187614 53.187614 0 0 1-49.180328-49.544626 53.187614 53.187614 0 0 1 49.180328-49.180328 53.187614 53.187614 0 0 1 49.544626 49.180328A53.187614 53.187614 0 0 1 509.222907 382.164663z m345.355191 72.859745A129.690346 129.690346 0 0 0 724.523453 587.993443a131.51184 131.51184 0 0 0 263.02368 0A129.690346 129.690346 0 0 0 854.578098 455.024408z m0 182.149363a52.459016 52.459016 0 0 1-49.180328-49.180328 49.180328 49.180328 0 1 1 98.360656 0A52.459016 52.459016 0 0 1 854.578098 637.17377zM509.222907 390.543534A38.615665 38.615665 0 0 0 469.514346 431.70929V851.017122a41.165756 41.165756 0 1 0 81.967213 0v-419.307832a38.979964 38.979964 0 0 0-42.258652-41.165756z m0-518.032787A38.615665 38.615665 0 0 0 469.514346-86.323497v327.868852a41.165756 41.165756 0 1 0 81.967213 0v-327.868852A38.979964 38.979964 0 0 0 509.222907-127.853552z"  horiz-adv-x="1024" />

    
    <glyph glyph-name="line" unicode="&#58953;" d="M715.294 715.294h128c15.059 0 30.118 12.55 30.118 30.118 0 15.059-12.55 30.117-30.118 30.117h-128c-15.059 0-30.118-12.549-30.118-30.117s12.55-30.118 30.118-30.118zM1104.314 896c-82.824 0-150.589-67.765-150.589-153.098 0-82.824 67.765-153.098 150.589-153.098s150.588 67.765 150.588 153.098C1254.902 828.235 1187.137 896 1104.314 896z m0-245.96c-50.196 0-92.863 42.666-92.863 92.862s40.157 92.863 92.863 92.863c50.196 0 92.862-42.667 92.862-92.863s-42.666-92.863-92.862-92.863z m-376.47-240.942H539.607c-7.53 0-160.628 22.588-160.628 163.137 0 135.53 140.55 140.55 155.608 140.55h47.687c15.058 0 27.607 15.058 27.607 30.117s-12.549 27.608-27.607 30.118h-47.687c-72.784 0-213.333-42.667-213.333-200.785 0-155.608 138.04-213.333 213.333-223.372h188.236c7.529 0 160.627-22.588 160.627-163.138 0-135.529-140.549-140.549-155.608-140.549H298.667c-10.04 75.295-72.785 130.51-148.079 130.51C67.765 175.686 0 107.922 0 22.588 0-60.235 67.765-128 150.588-128c70.275 0 130.51 50.196 145.569 115.451h431.686c75.294 0 213.333 42.667 213.333 200.784 0 155.608-138.039 213.334-213.333 220.863zM150.587-70.275c-50.196 0-92.863 42.667-92.863 92.863 0 52.706 42.667 95.373 92.863 95.373s92.863-42.667 92.863-92.863c-2.51-52.706-42.667-95.373-92.863-95.373z"  horiz-adv-x="1254" />

    
    <glyph glyph-name="lock" unicode="&#58954;" d="M818.247 483.673h-45.989v70.992c0 152.308-123.463 275.779-275.778 275.779S220.698 706.973 220.698 554.665v-70.992h-45.987c-25.379 0-45.988-20.566-45.988-45.987v-455.407c0-25.428 20.56-45.989 45.988-45.989h643.536c25.377 0 45.988 20.56 45.988 45.989V437.686c-0.045 25.42-20.611 45.987-45.988 45.987z m-137.915 0H312.625v70.992c0 101.554 82.345 183.853 183.855 183.853 101.51 0 183.853-82.343 183.853-183.853v-70.992h-0.001z m0 0"  horiz-adv-x="1024" />

    
    <glyph glyph-name="gps_wgtj" unicode="&#58955;" d="M961.1 202.2c-14.1 6.7-31.1 0.7-37.8-13.4C848.2 31 686.7-71 512-71 261-71 56.7 133.2 56.7 384.2c0 191.1 120.6 363.1 300.2 428.2 14.7 5.3 22.3 21.6 17 36.3-5.3 14.7-21.6 22.3-36.3 17-48.7-17.7-94.4-42.6-135.8-74.2-41-31.2-76.9-68.3-106.8-110.2-62.2-87-95-189.8-95-297.1C0 315.1 13.5 248 40.2 184.9 66 124 102.9 69.2 150 22.2s101.8-83.9 162.7-109.7c63.1-26.7 130.2-40.2 199.3-40.2 98.6 0 194.4 28.1 277 81.3 80.4 51.8 144.5 124.7 185.5 210.9 6.8 14.1 0.8 31-13.4 37.7zM1023.8 393.1c0.1 1 0.1 2.1 0.1 3.2-3 130.2-54.9 253.3-146.2 346.4C786.5 835.6 664.8 890 535 895.7c-12.7 0.6-23.8-7.3-27.9-18.7-1.8-3.7-2.8-7.9-2.8-12.3v-475.4c0-15.7 12.7-28.4 28.4-28.4h463c15.7 0 28.4 12.7 28.4 28.4-0.1 1.3-0.2 2.6-0.3 3.8zM561 836.9c217.3-23.3 389.1-200.6 405.1-419.2H561V836.9z"  horiz-adv-x="1024" />

    
    <glyph glyph-name="gdxxgl" unicode="&#58956;" d="M881.277 384c0 44.845 19.861 85.167 51.471 113.064 14.694 12.967 18.4 34.383 8.483 51.286l-70.568 120.292c-9.686 16.511-29.496 23.989-47.756 18.242-15.148-4.768-31.307-7.344-48.084-7.344-75.071 0-137.788 51.579-152.902 120.374C617.805 818.657 601.188 832 581.998 832H442.004c-19.19 0-35.807-13.343-39.925-32.086-15.114-68.795-77.831-120.374-152.904-120.374-16.775 0-32.932 2.576-48.079 7.344-18.259 5.747-38.069-1.73-47.756-18.241L82.767 548.351c-9.917-16.903-6.211-38.32 8.483-51.288 31.611-27.897 51.47-68.218 51.47-113.063 0-44.844-19.859-85.166-51.47-113.063-14.694-12.968-18.4-34.384-8.483-51.288l70.571-120.292c9.686-16.511 29.497-23.988 47.756-18.241 15.147 4.768 31.304 7.344 48.079 7.344 75.075 0 137.791-51.578 152.905-120.374C406.195-50.657 422.813-64 442.003-64H582c19.19 0 35.808 13.343 39.925 32.086 15.113 68.796 77.829 120.374 152.902 120.374 16.776 0 32.933-2.576 48.081-7.344 18.26-5.748 38.07 1.73 47.756 18.241l70.569 120.291c9.917 16.904 6.211 38.321-8.484 51.289-31.611 27.898-51.472 68.22-51.472 113.063zM824.37 146.925a224.648 224.648 0 0 1-49.543 5.535c-29.523 0-58.211-5.657-85.266-16.814-26.204-10.806-49.75-26.288-69.984-46.015-20.347-19.838-36.344-42.99-47.547-68.815A214.314 214.314 0 0 1 564.251 0H459.75a213.987 213.987 0 0 1-7.779 20.816c-11.203 25.825-27.2 48.978-47.547 68.815-20.234 19.728-43.78 35.209-69.984 46.015-27.056 11.157-55.744 16.814-85.267 16.814a224.63 224.63 0 0 1-49.541-5.535l-52.341 89.218a217.351 217.351 0 0 1 28.408 37.07A213.395 213.395 0 0 1 206.72 384a213.407 213.407 0 0 1-31.02 110.788 217.39 217.39 0 0 1-28.408 37.07l52.341 89.218a224.683 224.683 0 0 1 49.541-5.535c29.523 0 58.211 5.657 85.267 16.814 26.204 10.806 49.75 26.287 69.984 46.015 20.347 19.838 36.344 42.99 47.547 68.815a214.248 214.248 0 0 1 7.779 20.816h104.5a213.873 213.873 0 0 1 7.779-20.815c11.203-25.824 27.2-48.977 47.547-68.815 20.234-19.728 43.78-35.209 69.983-46.016 27.056-11.157 55.743-16.814 85.266-16.814a224.65 224.65 0 0 1 49.544 5.535l52.338-89.217A217.344 217.344 0 0 1 848.3 494.79a213.396 213.396 0 0 1-31.022-110.789A213.39 213.39 0 0 1 848.3 273.214a217.274 217.274 0 0 1 28.409-37.071l-52.339-89.218zM512 576c-106.039 0-192-85.961-192-192s85.961-192 192-192 192 85.961 192 192-85.961 192-192 192z m90.51-282.51C578.334 269.314 546.19 256 512 256s-66.334 13.314-90.51 37.49C397.314 317.667 384 349.81 384 384s13.314 66.334 37.49 90.51C445.666 498.686 477.81 512 512 512s66.334-13.314 90.51-37.49C626.686 450.334 640 418.19 640 384s-13.314-66.333-37.49-90.51z"  horiz-adv-x="1024" />

    
    <glyph glyph-name="details" unicode="&#58957;" d="M448.38 3.715H229.405c-76.147 0-138.071 61.926-138.071 138.073V694.075c0 76.148 61.924 138.074 138.071 138.074h495.12c76.146 0 138.072-61.926 138.072-138.074v-276.143h-69.04V694.075c0 38.04-30.927 69.036-69.033 69.036H229.405c-38.038 0-69.035-30.997-69.035-69.036v-552.287c0-38.107 30.997-69.037 69.035-69.037H448.38v-69.036zM229.405 625.039h495.119v-69.036H229.405V625.04z m703.26-640.377l-98.097 98.1c17.534 26.993 28.03 59.094 28.03 93.543 0 94.926-77.665 172.59-172.591 172.59s-172.59-77.665-172.59-172.59c0-94.924 77.665-172.59 172.59-172.59 35.622 0 68.759 10.91 96.375 29.617l97.478-97.48 48.805 48.81z m-242.66 88.09c-57.09 0-103.555 46.46-103.555 103.553 0 57.093 46.464 103.554 103.556 103.554s103.551-46.461 103.551-103.554-46.46-103.554-103.551-103.554z m-460.6 414.215h495.119v-69.036H229.405v69.036z m0-138.073H448.38v-69.035H229.405v69.035z"  horiz-adv-x="1024" />

    
    <glyph glyph-name="language" unicode="&#58958;" d="M729.6 601.6c19.2-57.6 44.8-102.4 89.6-147.2 38.4 38.4 64 89.6 83.2 147.2H729.6z m-422.4-320h166.4l-83.2 224zM947.2 896h-768c-70.4 0-128-57.6-128-128v-768c0-70.4 57.6-128 128-128h768c70.4 0 128 57.6 128 128V768c0 70.4-51.2 128-128 128zM633.6 70.4c-12.8-12.8-25.6-12.8-38.4-12.8-6.4 0-19.2 0-25.6 6.4s-12.8 0-12.8 6.4-6.4 12.8-12.8 25.6-6.4 19.2-12.8 32l-25.6 70.4h-224L256 128c-12.8-25.6-19.2-44.8-25.6-57.6-6.4-12.8-19.2-12.8-38.4-12.8-12.8 0-25.6 6.4-38.4 12.8-12.8 12.8-19.2 19.2-19.2 32 0 6.4 0 12.8 6.4 25.6s6.4 19.2 12.8 32l140.8 358.4c6.4 12.8 6.4 25.6 12.8 38.4s12.8 25.6 19.2 32 12.8 19.2 25.6 25.6c12.8 6.4 25.6 6.4 38.4 6.4 12.8 0 25.6 0 38.4-6.4 12.8-6.4 19.2-12.8 25.6-25.6 6.4-6.4 12.8-19.2 19.2-32 6.4-12.8 12.8-25.6 19.2-44.8l140.8-352c12.8-25.6 19.2-44.8 19.2-57.6-6.4-6.4-12.8-19.2-19.2-32z m352 249.6c-70.4 25.6-121.6 57.6-166.4 96-44.8-44.8-102.4-76.8-172.8-96l-19.2 32c70.4 19.2 128 44.8 172.8 89.6-44.8 44.8-83.2 102.4-96 166.4h-64v25.6h172.8c-12.8 19.2-25.6 44.8-38.4 64l19.2 6.4c12.8-19.2 32-44.8 44.8-70.4h160v-32h-64c-19.2-64-51.2-121.6-89.6-160 44.8-38.4 96-70.4 166.4-89.6l-25.6-32z"  horiz-adv-x="1088" />

    
    <glyph glyph-name="inbox" unicode="&#58959;" d="M971.238 387.763L756.71 654.131a19.186 19.186 0 0 1-14.95 7.143h-26.547v-38.4h17.357l204.544-253.927v-366.131c0-16.051-15.642-29.107-34.868-29.107H121.78c-19.225 0-34.867 13.056-34.867 29.107V365.824l211.174 257.05h18.279v38.4h-27.341c-5.76 0-11.213-2.586-14.822-6.99L52.864 384.897c-2.816-3.456-4.378-7.757-4.378-12.211v-369.869c0-37.222 32.87-67.507 73.268-67.507h780.441c40.397 0 73.267 30.285 73.267 67.507V375.731a18.897 18.897 0 0 1-4.224 12.032zM390.323 285.133c-38.835 0-70.4-31.565-70.4-70.4V84.25c0-38.836 31.565-70.4 70.4-70.4h263.86c38.835 0 70.4 31.564 70.4 70.4V214.733c0 38.835-31.565 70.4-70.4 70.4h-263.86z m263.86-38.4c7.167 0 13.44-2.816 18.764-6.784L522.24 147.686 371.558 239.95c5.325 3.968 11.597 6.784 18.765 6.784h263.86z m0-194.483h-263.86c-17.638 0-32 14.361-32 32V203.008L522.24 102.605l163.917 100.377v-118.758c0.025-17.613-14.336-31.974-31.975-31.974zM403.712 634.086l94.182 119.348v-367.872c0-10.599 8.602-19.2 19.2-19.2s19.2 8.601 19.2 19.2V753.408l94.157-119.347c3.789-4.813 9.395-7.296 15.104-7.296a19.25 19.25 0 0 1 11.879 4.121c8.32 6.58 9.753 18.663 3.174 26.983L532.173 820.634c-3.661 4.608-9.19 7.296-15.079 7.296s-11.417-2.688-15.078-7.296l-128.46-162.765c-6.58-8.32-5.146-20.403 3.174-26.983 8.37-6.553 20.403-5.12 26.982 3.2zM168.78 336.18a19.222 19.222 0 0 1 17.178-10.625h189.236c10.598 0 19.2 8.602 19.2 19.2s-8.602 19.2-19.2 19.2H224.435l124.263 165.171H416c10.598 0 19.2 8.602 19.2 19.2s-8.602 19.2-19.2 19.2h-76.877a19.217 19.217 0 0 1-15.36-7.654L170.598 356.301a19.199 19.199 0 0 1-1.817-20.122zM599.194 548.326c0-10.598 8.601-19.2 19.2-19.2h71.526l124.262-165.17H663.45c-10.599 0-19.2-8.602-19.2-19.2s8.601-19.2 19.2-19.2h189.21c7.27 0 13.926 4.12 17.177 10.623 3.251 6.528 2.56 14.31-1.818 20.122L714.854 559.872a19.254 19.254 0 0 1-15.36 7.654h-81.1c-10.599 0-19.2-8.601-19.2-19.2z"  horiz-adv-x="1024" />

    
    <glyph glyph-name="jcxx" unicode="&#58960;" d="M774.758-14.541H248.832c-74.547 0-135.578 61.031-135.578 135.578V646.962c0 74.547 61.031 135.579 135.578 135.579h525.926c74.957 0 135.578-61.032 135.578-135.579v-525.925c0-74.957-60.621-135.578-135.578-135.578zM248.832 726.834c-44.238 0-79.871-35.633-79.871-79.872v-525.925c0-44.239 36.043-79.871 79.871-79.871h525.926c44.238 0 79.871 36.043 79.871 79.871V646.962c0 44.239-36.043 79.872-79.871 79.872H248.832z m0 0M882.484 146.841H141.106c-15.153 0-27.852 12.289-27.852 27.853 0 15.155 12.289 27.854 27.852 27.854h741.785c15.156 0 27.855-12.289 27.855-27.854-0.41-15.564-12.699-27.853-28.262-27.853zM735.438 534.732H288.152c-15.156 0-27.851 12.289-27.851 27.852 0 15.566 12.289 27.855 27.851 27.855h446.875c15.156 0 27.852-12.289 27.852-27.855 0-15.563-12.289-27.852-27.441-27.852z m0-147.457H288.152c-15.156 0-27.851 12.289-27.851 27.854 0 15.153 12.289 27.852 27.851 27.852h446.875c15.156 0 27.852-12.289 27.852-27.852 0.41-15.565-12.289-27.854-27.441-27.854z m0 0"  horiz-adv-x="1024" />

    
    <glyph glyph-name="international" unicode="&#58961;" d="M666.298 71.913c-12.567 30.72-54.225 83.316-123.578 156.392-18.618 19.55-17.455 34.444-10.705 78.895v5.12c4.421 30.487 12.101 48.407 114.501 64.698 52.131 8.146 65.63-12.567 84.713-41.425l6.284-9.542a101.004 101.004 0 0 1 51.432-41.658c9.077-4.19 20.248-9.31 35.375-17.92 36.77-20.248 36.77-43.288 36.77-94.022v-5.818a215.273 215.273 0 0 0-41.425-139.637 472.436 472.436 0 0 0-152.203-88.203c27.927 52.363 6.516 114.502 0 132.422zM512 855.04a468.015 468.015 0 0 0 203.87-46.545 434.502 434.502 0 0 1-102.866-82.619c-7.448-10.24-13.731-19.781-19.782-28.625-19.55-29.556-29.091-42.822-46.546-44.916a200.844 200.844 0 0 0-33.745 0c-34.211 2.327-80.756 5.12-95.651-35.375-9.542-25.833-11.17-95.65 19.55-131.956a32.35 32.35 0 0 0 2.56-28.626 56.087 56.087 0 0 0-16.525-25.833 151.505 151.505 0 0 0-23.272 23.273 151.273 151.273 0 0 1-66.56 52.83c-10.008 2.792-21.178 5.12-31.884 7.447-30.254 6.283-64.233 13.498-72.145 30.487a119.156 119.156 0 0 0-5.819 46.545 175.476 175.476 0 0 1-11.17 74.008 70.982 70.982 0 0 1-44.451 39.563A469.644 469.644 0 0 0 512 855.04zM0 384A512 512 0 1 1 512 896 512 512 0 0 1 0 384z"  horiz-adv-x="1024" />

    
    <glyph glyph-name="gps_clgl" unicode="&#58962;" d="M935.597 744.978H442.014a88.403 88.403 0 0 1-88.402-88.402v-73.67H195.223A195.444 195.444 0 0 1 0 387.683v-202.59a29.468 29.468 0 0 1 29.468-29.467h81.404c0-2.431-0.368-4.862-0.368-7.367a125.237 125.237 0 0 1 250.474 0v7.367h302.78v-7.367a125.237 125.237 0 0 1 250.475 0v7.367h22.1a88.403 88.403 0 0 1 88.404 88.403V656.576a88.403 88.403 0 0 1-89.14 88.402zM235.741 81.957a66.302 66.302 0 1 0 66.302 66.302 66.302 66.302 0 0 0-66.302-66.302z m117.87 132.604h-11.787a125.237 125.237 0 0 1-212.166 0H58.935v117.87h294.677z m0 176.806H58.936A136.288 136.288 0 0 0 195.002 523.97h158.61z m434.648-309.41a66.302 66.302 0 1 0 66.302 66.302 66.302 66.302 0 0 0-66.302-66.302z m176.806 162.072a29.468 29.468 0 0 0-29.468-29.468h-41.255a125.237 125.237 0 0 1-212.166 0h-269.63V656.576a29.468 29.468 0 0 0 29.468 29.467h493.583a29.468 29.468 0 0 0 29.468-29.467z"  horiz-adv-x="1024" />

    
    <glyph glyph-name="money" unicode="&#58963;" d="M463.3-62.3V123.9H228.8v77.5h234.5v80.5H228.8v83.5H420L191.5 768h113.7L469 475.4c18.2-33.4 32.4-62.4 42.7-86.9 9 19.8 24.6 50.5 46.8 92.1L713.9 768h120.8L605.5 365.4h192.9v-83.5H564.9v-80.5h233.5v-77.5H564.9v-186.2H463.3z"  horiz-adv-x="1024" />

    
    <glyph glyph-name="outbox" unicode="&#58964;" d="M322.048 495.104h-171.52c-22.016 0-40.448-17.92-40.448-40.448v-430.592c0-17.92 11.776-33.28 27.648-38.4l93.184 271.872c10.24 29.696 31.232 55.808 56.32 74.752 21.504 15.872 47.104 27.648 74.24 30.208h36.352c15.872 23.04 30.208 47.104 39.936 74.752 10.752 29.184 15.872 61.44 12.8 98.816h396.8c3.584-36.864 1.536-71.168-6.144-102.912-5.632-24.576-14.848-48.128-26.624-70.144h34.304c9.728 19.968 16.896 41.472 22.016 63.488 9.216 39.424 10.752 81.408 5.12 126.976l-14.848 13.312H650.752c3.072 49.152-8.192 99.84-39.936 153.088l-13.312 7.168h-84.48c-15.872 31.232-41.984 59.904-76.288 83.456-11.264 7.68-23.552 15.36-36.864 22.528l-7.168 2.048H124.928L115.2 808.448c37.376-31.232 70.656-67.584 86.528-109.056 15.872-40.448 15.872-86.528-11.264-140.288l13.312-22.016h126.976c-2.048-14.336-4.608-28.672-8.704-41.984z m161.28-52.736h316.416l-9.216-27.648H473.6l9.728 27.648z m11.776 58.88H811.52l-3.072-27.648H492.032l3.072 27.648z m-97.28 94.72h184.832l-1.536-15.872H396.288l1.536 15.872z m-1.024 37.376h184.832l2.048-15.872H398.848l-2.048 15.872z m-5.632 36.352H576l4.608-16.384H395.264l-4.096 16.384z m417.28-735.232H168.96l105.472 308.224c7.168 20.48 22.016 39.424 40.448 52.736 18.432 13.824 39.424 22.016 59.904 22.016h504.32c6.656 0 12.8-1.024 17.92-2.56 8.192-2.56 14.336-7.68 18.432-13.824 4.608-6.144 6.656-14.336 6.656-24.064 0-6.656-1.024-14.336-4.096-22.016L808.448-65.536z m-399.36 514.048h-72.192c16.384 34.816 24.576 73.216 26.112 113.152 2.048 42.496-3.584 88.064-14.336 135.168H588.8c25.6-44.544 34.304-87.552 31.232-128.512v-1.536H433.664l-14.848-17.408c5.632-38.4 1.024-71.68-9.728-100.864z m-75.776 119.296H227.328c21.504 53.248 19.456 100.864 2.56 142.848-13.824 35.328-37.888 66.56-66.048 94.208h224.768c10.752-5.632 20.48-12.288 30.208-18.944 24.576-17.408 44.544-37.376 58.88-58.88H329.728l-14.848-18.944c12.8-49.152 19.968-96.256 18.432-140.288z"  horiz-adv-x="1024" />

    
    <glyph glyph-name="open" unicode="&#58965;" d="M426.667 512h170.666V640h128L512 853.333 298.667 640h128v-128zM384 469.333H256v128L42.667 384 256 170.667v128h128V469.333zM981.333 384L768 597.333v-128H640v-170.666h128v-128L981.333 384z m-384-128H426.667v-128h-128L512-85.333 725.333 128h-128V256z"  horiz-adv-x="1024" />

    
    <glyph glyph-name="home" unicode="&#58966;" d="M592.795-46.076v255.69H432.057v-256.373c-5.023-0.259-9.03-0.647-13.039-0.647-75.894 0-151.828-0.041-227.727 0-26.08 0-43.618 16.728-43.733 44.43-0.527 105.2-0.367 210.487 0.116 315.687 0 5.548 4.214 12.642 8.466 16.429 68.687 60.686 137.734 120.984 206.665 181.33 45.884 40.168 91.73 80.34 137.612 120.467 3.565 3.098 7.213 6.106 11.704 9.94 27.377-23.917 54.633-47.7 81.849-71.527 89.783-78.58 179.449-157.332 269.476-235.612 9.68-8.384 13.81-16.899 13.728-30.446-0.566-99.872-0.406-199.778-0.2-299.603 0.037-18.152-4.215-33.937-19.322-43.959-5.467-3.649-12.392-6.794-18.668-6.836-80.551-0.43-161.103-0.21-241.61-0.17-1.174-0.002-2.395 0.558-4.579 1.2z m120.97 707.89c0 42.193-0.04 81.159 0 120.085 0.037 24.858 5.626 30.794 28.995 30.836 36.287 0 72.574 0.04 108.861-0.042 18.711-0.047 25.187-7.053 25.23-28.086 0.085-83.307 0.283-166.664-0.244-249.971-0.082-12.86 3.322-21.115 12.834-29.287 39.775-33.98 78.772-68.901 117.975-103.61 19.233-17.034 19.721-25.33 3.521-45.591-9.797-12.3-19.393-24.817-29.278-37.076-12.148-15.178-22.194-16.126-36.73-3.221-139.193 123.352-278.386 246.788-417.622 370.18-4.82 4.258-9.759 8.433-15.392 13.338-31.303-27.703-62.366-55.1-93.348-82.58-112.988-100.13-225.979-200.296-338.97-300.42-15.308-13.59-24.821-12.777-37.7 3.225a4194.073 4194.073 0 0 0-31.75 40.08c-12.232 15.657-11.744 25.766 3.036 38.967 63.054 56.043 126.275 111.871 189.451 167.783 84.194 74.536 168.471 148.983 252.627 223.647 38.187 33.85 75.366 33.85 113.639-0.257 45.235-40.298 90.597-80.43 135.91-120.598 2.151-1.897 4.418-3.657 8.954-7.402z m0 0"  horiz-adv-x="1024" />

    
    <glyph glyph-name="knowledgebase" unicode="&#58967;" d="M64 704v-640c0-70.7 57.3-128 128-128V832c-70.7 0-128-57.3-128-128zM832 832v-255.1L703.8 704 576 576V832H256v-896h576c70.7 0 128 57.3 128 128V704c0 70.7-57.3 128-128 128z m0-640H384v64h448v-64z m0 192H384v64h448v-64z"  horiz-adv-x="1024" />

    
    <glyph glyph-name="logManagement" unicode="&#58968;" d="M956.928 879.104H106.496v-214.016h-50.688C27.648 665.088 5.12 642.56 5.12 614.4s22.528-50.688 50.688-50.688h50.688v-107.008h-50.688c-28.16 0-50.688-22.528-50.688-50.688s22.528-50.688 50.688-50.688h50.688v-157.696h-50.688c-28.16 0-50.688-22.528-50.688-50.688s22.528-50.688 50.688-50.688h50.688V-117.76h850.432c33.792 0 56.32 22.528 56.32 56.32V839.68c0 16.896-28.16 39.424-56.32 39.424zM365.568-72.704H168.448v152.064h95.744c28.16 0 50.688 22.528 50.688 50.688s-22.528 50.688-50.688 50.688H168.448v157.696h95.744c28.16 0 50.688 22.528 50.688 50.688s-22.528 50.688-50.688 50.688H168.448V546.816h95.744c28.16 0 50.688 22.528 50.688 50.688s-22.528 50.688-50.688 50.688H168.448V800.256h197.12v-872.96z m450.56 382.976c-33.792 0-67.584 28.16-67.584 61.952s28.16 61.952 67.584 61.952c33.792 0 67.584-28.16 67.584-61.952s-28.16-61.952-67.584-61.952z"  horiz-adv-x="1024" />

    
    <glyph glyph-name="password" unicode="&#58969;" d="M780.8 541.42H665.6v42.89c0 72.31-19.85 193.3-153.6 193.3-138.87 0-153.6-135.05-153.6-193.3v-42.89H243.2v42.89C243.2 773.75 348.79 896 512 896s268.8-122.25 268.8-311.69v-42.89z m-192-314.84c0 43.52-34.58 78.65-76.8 78.65s-76.8-35.13-76.8-78.65c0-29.46 15.4-54.47 38.44-67.82v-89.64c0-21.74 17.25-39.7 38.4-39.7s38.4 17.96 38.4 39.7v89.64c23 13.35 38.36 38.36 38.36 67.82zM896 384v-393.61c0-65.26-51.87-118.39-115.2-118.39H243.2c-63.291 0-115.2 53.13-115.2 118.39V384c0 65.22 51.87 118.39 115.2 118.39h537.6c63.33 0 115.2-53.17 115.2-118.39z"  horiz-adv-x="1024" />

    
    <glyph glyph-name="message" unicode="&#58970;" d="M0 693.3V265c0-83.3 68.3-150.7 152.6-150.7h228.9l8-190.3 224.9 190.3h257c84.3 0 152.6 67.4 152.6 150.7V693.3C1024 776.6 955.7 844 871.4 844H152.6C68.3 844 0 776.6 0 693.3z m658.6-237.9c0 39.7 32.1 71.4 72.3 71.4 40.2 0 72.3-31.7 72.3-71.4S771 384 730.9 384c-40.2 0-72.3 31.7-72.3 71.4z m-220.9 0c0 39.7 32.1 71.4 72.3 71.4 40.2 0 72.3-31.7 72.3-71.4S550.1 384 510 384c-40.2 0-72.3 31.7-72.3 71.4z m-216.8 0c0 39.7 32.1 71.4 72.3 71.4 40.2 0 72.3-31.7 72.3-71.4S333.3 384 293.1 384c-40.1 0-72.2 31.7-72.2 71.4z"  horiz-adv-x="1024" />

    
    <glyph glyph-name="rcyh" unicode="&#58971;" d="M717.312-25.6h-373.76c-54.784 0-93.696 13.824-118.272 41.472-24.576 30.208-24.576 62.976-24.576 74.24V416.768c2.56 69.12 54.784 115.712 82.432 129.536 0 0 252.928 156.672 293.888 181.248 22.016 13.824 35.84 19.456 49.664 24.576 2.56 22.016 19.456 38.4 35.84 41.472H742.4c27.648 0 44.032-16.384 49.664-30.208l2.56-5.632v-22.016c2.56-2.56 5.632-2.56 8.192-5.632 22.016-19.456 24.576-52.224 24.576-60.416v-593.92c0-30.208-8.192-54.784-27.648-74.24-30.208-24.576-68.608-27.136-82.432-27.136z m-222.72 54.784h222.72c5.632 0 27.648 0 38.4 13.824 8.192 8.192 10.752 19.456 10.752 35.84v593.92c0 5.632-2.56 13.824-2.56 16.384-8.192 5.632-10.752 8.192-10.752 8.192l-16.384 8.192v35.84h-57.856v-5.632c0-10.752-2.56-16.384-8.192-22.016l-8.192-8.192h-13.824c-8.192-2.56-22.016-8.192-44.032-22.016-41.472-24.576-293.888-181.248-293.888-181.248l-10.752-8.192c-13.824-10.752-41.472-35.84-44.032-76.8V87.04s-2.56-19.456 10.752-32.768c13.824-16.384 41.472-22.016 76.8-22.016l151.04-3.072zM409.6 403.456c-19.456 0-44.032 16.384-46.592 38.4V455.68c2.56 19.456 8.192 22.016 46.592 46.592l5.632 2.56 195.072 123.904h10.752c35.84 0 62.976-27.648 62.976-52.224v-96.256c-2.56-22.016-24.576-71.68-66.048-74.24h-2.56l-205.824-2.56zM624.128 573.44L442.368 458.24h164.864c8.192 2.56 16.384 16.384 19.456 24.576V570.88c0 2.56 0 2.56-2.56 2.56zM511.488 78.848c44.032 0 79.872 35.84 79.872 79.872 0 5.632 0 13.824-2.56 19.456 0 0-16.384 52.224-30.208 84.992-19.456 41.472-46.592 88.064-46.592 88.064s-22.016-38.4-41.472-79.872-38.4-93.696-38.4-93.696c-2.56-5.632-2.56-10.752-2.56-19.456 2.048-43.52 37.888-79.36 81.92-79.36z"  horiz-adv-x="1024" />

    
    <glyph glyph-name="promission" unicode="&#58972;" d="M857.6 499.2h-76.8V640C780.8 787.2 659.2 889.6 512 889.6 364.8 889.6 243.2 787.2 243.2 640v-134.4h-76.8c-38.4 0-64-32-64-64v-486.4c0-38.4 32-64 64-64h691.2c38.4 0 64 32 64 64v480c0 38.4-25.6 64-64 64z m-307.2-320v-108.8c0-6.4-6.4-6.4-6.4-6.4h-57.6c-6.4 0-6.4 6.4-6.4 6.4V179.2c-32 12.8-51.2 38.4-51.2 70.4 0 44.8 38.4 83.2 83.2 83.2 44.8 0 83.2-38.4 83.2-83.2 0-32-19.2-57.6-44.8-70.4z m128 320H345.6V646.4c0 76.8 76.8 140.8 166.4 140.8 89.6 0 166.4-64 166.4-140.8v-147.2z m0 0"  horiz-adv-x="1024" />

    
    </font>
</defs>
</svg>
